<svg preserveAspectRatio="none" width="100%" height="100%" overflow="visible" style="display: block;" viewBox="0 0 35 33" fill="none" xmlns="http://www.w3.org/2000/svg">
<g id="Camada_1" clip-path="url(#clip0_0_147)">
<path id="Vector" d="M25.1621 10.3996C31.8997 9.6729 36.0251 17.706 31.4428 22.7288L31.7442 23.4963L31.2717 24.0366L31.6265 24.6192C32.0582 24.3451 32.2372 24.2747 32.5637 24.7116C33.0205 25.3271 34.6735 28.2121 34.8854 28.884C35.6358 31.2646 32.5323 32.8293 31.0535 30.9075C30.1619 29.747 29.5057 28.0304 28.6706 26.7947C28.3755 26.3577 29.074 26.2293 29.0803 26.0006L28.7287 25.429C28.0364 25.9145 27.9768 25.4102 27.5545 24.9685C26.8198 25.1314 26.0365 25.2614 25.2877 25.1032L25.1606 25.2144V31.9381C25.1606 32.5348 24.3631 33.0486 23.7917 32.9969L2.7063 32.9937C1.70635 32.8935 1.37355 32.3187 1.49128 31.3523C0.550982 31.4197 -0.0251307 30.8371 -0.00158387 29.9099V1.29056C0.0172536 0.530944 0.533714 0.0156621 1.29506 0L22.7965 0.0563835C23.2329 0.183246 23.5672 0.443237 23.6677 0.906834L23.6881 7.21865L25.1606 8.79896V10.4012L25.1621 10.3996ZM22.8891 6.41362V1.13707C22.8891 1.11514 22.7682 0.924063 22.7321 0.902136L1.29192 0.858282L0.93558 0.972615L0.8618 30.1432L1.02192 30.4533L1.49285 30.4925V1.9186C1.49285 1.88885 1.69065 1.72909 1.74873 1.70403L17.7402 1.66175L22.6552 6.29772L22.8906 6.41519L22.8891 6.41362ZM17.2473 2.50437H2.35624V32.0164L2.47397 32.1339H24.1057C24.1198 32.1339 24.2438 32.0133 24.2611 31.9757L24.2909 24.9513C19.547 23.8377 17.1327 18.4891 19.5062 14.1789C20.4967 12.3809 22.2926 11.023 24.3003 10.5578V9.34556C24.2312 9.23436 24.1433 9.23749 24.0303 9.22496C22.2502 9.01666 19.8814 9.48965 18.153 9.22496C17.7543 9.16388 17.2473 8.658 17.2473 8.25235V2.50437ZM23.674 8.44656L18.1091 3.13085V8.25078C18.1091 8.26488 18.2912 8.44656 18.3053 8.44656H23.674ZM30.727 23.3757C30.6909 23.0843 30.4115 22.8917 30.5057 22.5738C30.5402 22.4563 31.2749 21.6669 31.4193 21.4492C35.2621 15.6621 28.7632 8.65173 22.7588 12.0285C16.646 15.4647 19.5093 24.9152 26.6895 24.3138C27.3033 24.2621 28.1008 23.75 28.3378 24.5503L28.4807 24.6192L30.727 23.3757ZM30.884 25.0953L30.4539 24.4078L29.4728 24.9419L29.9045 25.6435L30.884 25.0953ZM29.7082 27.0515C30.333 26.7477 30.9688 26.4063 31.5637 26.0492C31.8463 25.88 32.4114 25.6874 31.9311 25.4227L29.6454 26.79L29.7098 27.0531L29.7082 27.0515ZM32.5056 26.436L30.187 27.7924C30.9813 28.8276 31.6783 31.6922 33.4742 30.7697C35.27 29.8472 33.1382 27.642 32.6751 26.5535C32.6233 26.4814 32.6123 26.4266 32.504 26.436H32.5056Z" fill="var(--fill-0, #E6AE3B)"/>
<path id="Vector_2" d="M14.9067 8.66896C15.5158 8.69715 16.1453 8.57655 16.23 9.34243C16.263 9.64627 16.2693 10.6706 16.1406 10.8992C15.9004 11.3252 15.3007 11.1404 14.9036 11.189L14.4577 12.2728C14.4185 12.525 15.3604 12.8413 15.0715 13.507C15.0213 13.6229 14.1736 14.4874 14.037 14.5845C13.2788 15.1311 13.0512 14.1021 12.6619 14.1006L11.6023 14.5015C11.3511 14.6848 11.8425 15.684 11.078 15.8547C10.7735 15.9221 9.58513 15.9095 9.33553 15.7498C8.95407 15.5039 9.14873 14.9291 9.08279 14.5548L8.00121 14.1068C7.77516 14.0755 7.45492 14.8555 6.95887 14.7646C6.71241 14.7192 5.60728 13.6166 5.54135 13.3551C5.43618 12.9337 6.03898 12.6753 6.1677 12.3135L5.76583 11.2579C5.57903 11.0339 4.62303 11.4145 4.48802 10.8115C4.43936 10.5907 4.43622 9.15918 4.51157 8.99317C4.68582 8.60475 5.45815 8.68149 5.80037 8.67523L6.1834 7.60864C6.21008 7.31263 5.18972 7.0542 5.68891 6.25857C5.75955 6.1458 6.7234 5.19981 6.79875 5.17632C7.37487 5.0009 7.56638 5.56787 7.95726 5.84509L9.08593 5.38619C9.10006 4.98211 8.98233 4.16925 9.52704 4.06744C9.76408 4.02202 11.0843 4.03925 11.2695 4.12383C11.6886 4.3149 11.4375 4.97114 11.5615 5.31884C11.8331 5.41751 12.5505 5.85292 12.7765 5.74798C13.0622 5.61486 13.2239 5.06825 13.7404 5.17475C13.9601 5.22017 15.0715 6.32905 15.1171 6.54832C15.2348 7.11058 14.5205 7.32829 14.4986 7.54756L14.9051 8.66896H14.9067ZM10.7421 4.92729H9.95717C10.1126 6.22568 9.66833 5.94846 8.80651 6.32122C8.57418 6.42145 8.15034 6.75662 8.01691 6.78951C7.62289 6.88818 7.28853 6.31182 7.01852 6.10195L6.51462 6.61879C6.48166 6.80517 7.15039 7.11998 7.14254 7.54756C7.1394 7.72767 6.80189 8.21633 6.70614 8.44656C6.34194 9.3346 6.55858 9.76374 5.25408 9.61808V10.3229C5.50211 10.3088 6.25561 10.3103 6.41258 10.4967C6.45183 10.5437 6.69829 11.4396 6.78462 11.6495C6.86625 11.8499 7.08131 12.0473 7.12213 12.2571C7.20533 12.6879 6.76579 12.9713 6.51148 13.2533L7.02951 13.756C7.22574 13.7905 7.53969 13.1264 7.88034 13.128C8.05144 13.128 8.55692 13.4725 8.78297 13.5649C9.67304 13.9283 10.1032 13.7122 9.95717 15.0137L10.7075 14.9401C10.6871 13.6432 10.8017 14.0223 11.6808 13.6448C11.9398 13.5336 12.4688 13.1875 12.6807 13.1499C13.1941 13.0622 13.4625 13.8594 13.7184 13.7278L14.1877 13.2548C13.169 12.3762 13.541 12.4905 13.913 11.5727C14.2851 10.6549 14.048 10.1725 15.3651 10.3229V9.61808C14.07 9.71989 14.351 9.37219 13.9915 8.52487C13.8471 8.185 13.4138 7.66659 13.5237 7.35648C13.7341 6.75975 14.5912 6.86782 13.6006 6.10195C13.3667 6.2664 13.0308 6.8224 12.7451 6.80517C12.5991 6.79734 11.9885 6.39326 11.7577 6.29616C11.4799 6.17869 10.7954 6.13327 10.7389 5.82629C10.7091 5.66341 10.7735 4.96175 10.7389 4.92729H10.7421Z" fill="var(--fill-0, #E6AE3B)"/>
<path id="Vector_3" d="M4.99821 16.984C6.0531 17.0435 7.32306 16.8461 8.35284 16.9652C8.71546 17.0075 8.89913 17.1923 8.93994 17.5509C9.02471 18.2886 9.01058 20.0067 8.94151 20.7617C8.91326 21.0765 8.86302 21.3004 8.50982 21.3474C7.87563 21.432 5.61042 21.432 4.97466 21.3474C4.67169 21.3067 4.57907 21.125 4.54611 20.8368C4.46448 20.1352 4.46448 18.251 4.54611 17.5494C4.57907 17.2596 4.70779 17.067 4.99507 16.9808L4.99821 16.984ZM8.07656 17.9049H5.41106V20.5627H8.07656V17.9049Z" fill="var(--fill-0, #E6AE3B)"/>
<path id="Vector_4" d="M8.84105 26.1729H4.64657C4.58378 26.0178 4.55866 25.8534 4.54611 25.6874C4.48331 24.8588 4.47076 23.3725 4.54611 22.5534C4.58692 22.1023 4.68896 22.0068 5.13321 21.9676C5.87101 21.9003 7.80813 21.8721 8.50982 21.9676C8.75157 22.0005 8.81279 22.0632 8.885 22.2965C9.02471 22.7523 8.98547 25.0953 8.93994 25.6874C8.92739 25.855 8.90227 26.0178 8.83948 26.1729H8.84105ZM8.07656 22.8306H5.41106V25.4885H8.07656V22.8306Z" fill="var(--fill-0, #E6AE3B)"/>
<path id="Vector_5" d="M4.83966 26.9889C5.45815 27.0672 8.40622 26.8041 8.74843 27.0468C8.90384 27.1565 8.92582 27.3836 8.94308 27.5574C9.01372 28.3249 9.01843 29.9271 8.93837 30.6883C8.89285 31.1346 8.79709 31.238 8.35441 31.2787C7.57894 31.3492 5.81607 31.3649 5.05786 31.2772C4.66227 31.2318 4.58849 31.0673 4.54925 30.6898C4.4739 29.9647 4.46448 28.1996 4.54768 27.4838C4.57122 27.2786 4.63872 27.0844 4.83966 26.992V26.9889ZM8.07656 27.7548H5.41106V30.4126H8.07656V27.7548Z" fill="var(--fill-0, #E6AE3B)"/>
<path id="Vector_6" d="M10.8755 29.8049L21.3632 29.7846C22.0697 29.7454 22.3412 30.4533 21.5987 30.6523H10.932C10.3983 30.5896 10.3292 29.924 10.8739 29.8049H10.8755Z" fill="var(--fill-0, #E6AE3B)"/>
<path id="Vector_7" d="M21.9299 24.9591C22.1937 25.2206 21.9456 25.7485 21.5218 25.6467H10.8551C10.3339 25.5871 10.4312 24.887 10.9336 24.8573H21.5218C21.6442 24.8682 21.842 24.8714 21.9299 24.9575V24.9591Z" fill="var(--fill-0, #E6AE3B)"/>
<path id="Vector_8" d="M10.7028 27.5997H19.6381C19.9316 27.5997 19.9316 28.3813 19.6381 28.3813H10.7028C10.4438 28.1432 10.4485 27.8331 10.7028 27.5997Z" fill="var(--fill-0, #E6AE3B)"/>
<path id="Vector_9" d="M10.8755 19.8767L17.6821 19.8564C18.2598 19.93 18.299 20.6426 17.602 20.7225C15.5676 20.9559 13.0967 20.5424 11.0152 20.7225C10.425 20.6818 10.2821 20.0647 10.8771 19.8767H10.8755Z" fill="var(--fill-0, #E6AE3B)"/>
<path id="Vector_10" d="M10.6039 17.7671C10.6903 17.6809 10.8912 17.6778 11.0121 17.6668C12.6195 17.5337 14.4075 17.7765 16.0354 17.6668C16.6021 17.7389 16.6005 18.3826 16.0354 18.4562C14.4279 18.2902 12.4123 18.6645 10.8551 18.4562C10.4799 18.4061 10.3747 17.9957 10.6039 17.7671Z" fill="var(--fill-0, #E6AE3B)"/>
<path id="Vector_11" d="M10.8755 22.6129C11.3449 22.5095 14.723 22.5158 15.2426 22.6004C15.8768 22.7037 15.8674 23.3694 15.0904 23.4555C14.2568 23.5479 11.8331 23.5605 11.0215 23.4477C10.3528 23.3553 10.3229 22.7319 10.8739 22.6113L10.8755 22.6129Z" fill="var(--fill-0, #E6AE3B)"/>
<path id="Vector_12" d="M12.9162 9.94699C12.9162 11.3738 11.7561 12.5297 10.3261 12.5297C8.89599 12.5297 7.73592 11.3738 7.73592 9.94699C7.73592 8.52017 8.89599 7.36431 10.3261 7.36431C11.7561 7.36431 12.9162 8.52017 12.9162 9.94699ZM12.0858 9.95325C12.0858 8.98533 11.2993 8.20066 10.3276 8.20066C9.35594 8.20066 8.56947 8.98533 8.56947 9.95325C8.56947 10.9212 9.35594 11.7058 10.3276 11.7058C11.2993 11.7058 12.0858 10.9212 12.0858 9.95325Z" fill="var(--fill-0, #E6AE3B)"/>
<g id="Group">
<path id="Vector_13" d="M32.2403 17.753C32.2403 21.2018 29.4367 23.9974 25.98 23.9974C22.5233 23.9974 19.7197 21.2018 19.7197 17.753C19.7197 14.3042 22.5233 11.5085 25.98 11.5085C29.4367 11.5085 32.2403 14.3042 32.2403 17.753ZM31.4099 17.7514C31.4099 14.7599 28.9783 12.3355 25.98 12.3355C22.9817 12.3355 20.5501 14.7599 20.5501 17.7514C20.5501 20.7429 22.9817 23.1673 25.98 23.1673C28.9783 23.1673 31.4099 20.7429 31.4099 17.7514Z" fill="var(--fill-0, #E6AE3B)"/>
<path id="Vector_14" d="M29.9971 20.6176C29.837 20.7601 29.4194 20.8603 29.2012 20.8791C27.1338 21.0671 24.7885 20.7303 22.6897 20.8791C21.7949 20.7757 21.4417 20.1947 21.8012 19.3615C22.3962 17.9863 23.7807 15.8406 24.5986 14.4906C25.0114 13.8077 25.3034 12.929 26.2814 13.153C26.5012 13.2031 26.7382 13.4804 26.8716 13.6589C28.0976 15.2893 28.9704 17.7185 30.1917 19.4147C30.4037 19.7593 30.2875 20.3591 29.9971 20.6176ZM29.4728 20.0161L25.9847 13.9205C24.7195 15.8218 23.6551 17.8595 22.5076 19.8345L22.6144 20.0161H29.4728Z" fill="var(--fill-0, #E6AE3B)"/>
<path id="Vector_15" d="M26.239 18.6661C25.9345 18.9433 25.5954 18.6238 25.553 18.2589C25.4918 17.7498 25.4824 16.0912 25.5593 15.6041C25.6503 15.0293 26.341 15.0199 26.418 15.6762C26.4823 16.2243 26.4808 17.6292 26.418 18.1805C26.4038 18.3011 26.3191 18.5925 26.239 18.6661Z" fill="var(--fill-0, #E6AE3B)"/>
<path id="Vector_16" d="M25.9737 19.7796C26.2026 19.7796 26.3881 19.5945 26.3881 19.3662C26.3881 19.1378 26.2026 18.9527 25.9737 18.9527C25.7448 18.9527 25.5593 19.1378 25.5593 19.3662C25.5593 19.5945 25.7448 19.7796 25.9737 19.7796Z" fill="var(--fill-0, #E6AE3B)"/>
</g>
</g>
<defs>
<clipPath id="clip0_0_147">
<rect width="35" height="33" fill="white"/>
</clipPath>
</defs>
</svg>
