<svg preserveAspectRatio="none" width="100%" height="100%" overflow="visible" style="display: block;" viewBox="0 0 144 120" fill="none" xmlns="http://www.w3.org/2000/svg">
<g id="Icon1_&#195;&#137;TICA-E-COMPLIANCE_DESKTO_Astrazeneca" clip-path="url(#clip0_0_12)">
<path id="Vector" d="M94.5458 54.472C94.4627 54.472 94.4023 54.472 94.3646 54.472C93.3683 54.3889 92.621 53.5129 92.7041 52.5161C92.7795 51.5872 93.5419 50.8773 94.4476 50.8546C94.5684 50.7338 95.2553 49.8351 94.659 46.331C94.3797 44.6847 86.7714 43.3631 78.997 43.6123C78.9592 43.6123 78.9139 43.6123 78.8762 43.6123L32.7204 41.9509C31.7241 41.9132 30.9391 41.0749 30.9768 40.078C31.0146 39.0812 31.8524 38.3033 32.8487 38.3335L78.9441 39.9874C79.5102 39.9723 83.4729 39.8817 87.579 40.3273C94.342 41.0598 97.7235 42.7741 98.2216 45.7269C98.833 49.3442 98.4782 51.8137 97.1272 53.2863C96.1459 54.3587 94.9986 54.4796 94.5231 54.4796L94.5458 54.472Z" fill="var(--fill-0, white)"/>
<path id="Vector_2" d="M38.3285 48.6872C37.8757 48.6872 37.4228 48.5211 37.068 48.1737C33.528 44.7376 22.3118 30.1624 20.1531 25.8804C17.6924 20.9868 12.7334 5.99622 12.5221 5.35431C12.2051 4.40277 12.7259 3.37571 13.6769 3.06608C14.6279 2.7489 15.6545 3.26998 15.9639 4.22152C16.0168 4.37256 21.0513 19.5972 23.3911 24.2568C25.3838 28.2291 36.2755 42.3663 39.5891 45.5758C40.3061 46.2706 40.3288 47.4185 39.6268 48.1359C39.272 48.506 38.7965 48.6872 38.3285 48.6872Z" fill="var(--fill-0, white)"/>
<path id="Vector_3" d="M108.902 102.162C104.502 102.162 96.6215 99.0812 83.7673 93.4097C76.4005 90.1624 65.003 77.6262 64.52 77.0975C63.8482 76.3575 63.9086 75.2096 64.6483 74.5374C65.388 73.8653 66.5353 73.9257 67.207 74.6658C67.3203 74.7942 78.5667 87.1567 85.224 90.1019C91.8134 93.0094 107.204 99.7986 109.725 98.4619C111.778 96.1888 112.714 93.304 112.419 92.662C110.366 89.8301 102.199 85.9559 95.6402 82.8446C90.4095 80.36 85.8883 78.2152 83.5786 76.3726L73.5926 68.36C72.8152 67.7332 72.6869 66.5928 73.3133 65.815C73.9398 65.0371 75.0796 64.9087 75.857 65.5356L85.843 73.5406C87.8205 75.1189 92.3795 77.2788 97.1951 79.567C104.849 83.1995 112.767 86.9528 115.371 90.5626C117.348 93.2889 114.804 98.2807 112.366 100.947C111.619 101.77 110.48 102.17 108.902 102.17V102.162Z" fill="var(--fill-0, white)"/>
<path id="Vector_4" d="M103.143 110.492C99.1198 110.492 93.2928 109.359 88.6131 108.453C87.3676 108.211 86.1826 107.985 85.1259 107.789C78.9366 106.671 63.7878 93.0472 62.082 91.4915C61.3423 90.8194 61.2894 89.6715 61.9612 88.9314C62.633 88.1913 63.7803 88.1309 64.52 88.8106C70.6716 94.399 81.8803 103.522 85.775 104.224C86.8468 104.42 88.0394 104.647 89.3075 104.896C93.7985 105.772 99.384 106.852 103.06 106.867C103.784 106.429 104.917 103.567 105.415 100.886C105.596 99.9043 106.547 99.2549 107.528 99.4361C108.509 99.6174 109.159 100.569 108.977 101.551C108.479 104.239 106.902 110.492 103.143 110.492Z" fill="var(--fill-0, white)"/>
<path id="Vector_5" d="M92.8097 118.346C88.4319 118.346 82.6653 116.496 77.042 114.54L76.0985 114.215C68.928 111.746 59.7497 103.658 59.3647 103.318C58.6175 102.653 58.542 101.513 59.2062 100.758C59.8704 100.01 61.0102 99.9346 61.765 100.599C61.8555 100.675 70.7923 108.551 77.276 110.787L78.2271 111.119C82.6879 112.667 90.9907 115.552 94.7722 114.502C95.4062 114.208 96.2516 111.232 96.3195 108.174C96.3422 107.177 97.1951 106.399 98.1688 106.399C99.1651 106.422 99.9652 107.245 99.9426 108.249C99.9048 110.273 99.4746 116.957 95.7459 117.991C94.8628 118.24 93.874 118.346 92.8097 118.346Z" fill="var(--fill-0, white)"/>
<path id="Vector_6" d="M20.9154 91.9597C19.3605 91.9597 17.934 91.2498 16.832 89.9132C14.7185 87.3531 13.9864 82.5274 14.7865 80.2391C15.0657 79.4537 16.5451 76.7049 23.9874 74.5223C24.946 74.2429 25.9499 74.7867 26.2367 75.7533C26.516 76.7124 25.9725 77.7168 25.0139 78.0038C21.8438 78.9402 18.5378 80.6092 18.2057 81.4475C17.8887 82.3537 18.2057 85.8804 19.6247 87.6098C20.2285 88.3424 20.7418 88.3801 21.1569 88.3197C24.1308 87.8817 30.5617 86.3336 30.6221 86.3184C31.5958 86.0843 32.5695 86.6809 32.8034 87.6551C33.0374 88.6293 32.4411 89.6035 31.4674 89.8376C31.1957 89.9056 24.8177 91.4311 21.6853 91.8993C21.4211 91.9371 21.1645 91.9597 20.9079 91.9597H20.9154Z" fill="var(--fill-0, white)"/>
<path id="Vector_7" d="M31.0599 109.374C28.0935 109.374 25.2479 105.447 24.078 103.205C22.3571 99.8892 23.0439 98.2429 23.9346 97.45C26.3122 95.3203 32.3279 92.4733 33.0072 92.1561C33.913 91.7332 34.9923 92.1259 35.415 93.0321C35.8377 93.9383 35.4452 95.0183 34.5395 95.4412C32.9242 96.1964 28.5388 98.3864 26.6443 99.8968C26.8405 101.528 29.8069 105.523 31.0448 105.734C33.5582 105.13 42.2459 102.079 42.3365 102.049C43.28 101.717 44.3141 102.215 44.6462 103.159C44.9783 104.103 44.4801 105.138 43.5366 105.47C43.1668 105.598 34.4112 108.672 31.7996 109.276C31.5505 109.337 31.3089 109.359 31.0599 109.359V109.374Z" fill="var(--fill-0, white)"/>
<path id="Vector_8" d="M49.0844 120C45.869 120 42.6913 115.325 41.6572 112.999C40.2608 109.85 41.3477 108.483 42.1176 107.947C43.7253 106.829 44.3971 106.49 44.85 106.263C45.1595 106.104 45.25 106.059 45.7331 105.644C46.4879 104.987 47.6352 105.07 48.2919 105.825C48.9485 106.58 48.8655 107.728 48.1107 108.385C47.3257 109.065 46.9785 109.261 46.4728 109.51C46.1407 109.677 45.6954 109.903 44.6235 110.628C44.9179 112.32 47.8163 116.149 49.0617 116.375C51.1827 115.846 59.9233 112.448 63.1538 111.164C64.0822 110.794 65.1389 111.247 65.5088 112.184C65.8786 113.113 65.4257 114.17 64.4898 114.54C63.2595 115.031 52.413 119.32 49.809 119.924C49.5675 119.977 49.3259 120.008 49.0844 120.008V120Z" fill="var(--fill-0, white)"/>
<path id="Vector_9" d="M64.6257 114.653C63.5236 114.653 62.55 114.6 61.8329 114.464C55.1681 113.203 43.3328 106.308 38.6758 101.755C31.3542 94.5954 18.1378 67.9899 17.5792 66.8571L0.218891 34.6104C-0.256631 33.7269 0.0754796 32.6318 0.958591 32.1561C1.8417 31.6803 2.93616 32.0126 3.41168 32.8962L20.8022 65.2033C20.9682 65.528 34.3281 92.4431 41.2119 99.1718C45.3934 103.257 56.6927 109.812 62.5122 110.907C64.8143 111.346 72.0377 110.59 74.6267 110.266C75.6155 110.137 76.5288 110.847 76.6496 111.836C76.7779 112.826 76.0684 113.739 75.0796 113.86C74.287 113.958 68.6185 114.661 64.6332 114.661L64.6257 114.653Z" fill="var(--fill-0, white)"/>
<path id="Vector_10" d="M74.7324 68.7527C74.6493 68.7527 74.5663 68.7527 74.4833 68.7376C60.2327 66.7514 26.8028 61.9031 24.1459 59.7659C23.0817 58.9125 22.4552 57.5381 22.274 55.6879C21.9495 52.3801 23.1496 47.8188 24.9083 45.7193C25.4593 45.0548 27.15 43.0384 45.1444 45.8477C45.6048 45.9232 90.1453 53.1202 117.242 50.4091C121.779 49.9559 127.191 48.219 133.327 45.2511C134.225 44.8131 135.312 45.1907 135.75 46.0969C136.188 46.9956 135.81 48.0831 134.905 48.5211C128.383 51.6778 122.564 53.528 117.605 54.0264C90.0321 56.7753 45.0236 49.5104 44.5707 49.4349C37.6492 48.3549 29.3163 47.6375 27.5501 48.2266C26.5764 49.5784 25.6404 52.9087 25.8744 55.3405C25.9574 56.2165 26.1839 56.7149 26.3726 56.9113C29.0144 58.2404 53.2962 62.1372 74.9814 65.158C75.9702 65.2939 76.6646 66.2152 76.5288 67.2045C76.4005 68.1108 75.623 68.7678 74.7399 68.7678L74.7324 68.7527Z" fill="var(--fill-0, white)"/>
<path id="Vector_11" d="M117.778 90.4418C116.842 90.4418 116.05 89.7244 115.974 88.7728C115.891 87.776 116.639 86.8999 117.635 86.8244L134.89 85.45C135.886 85.3745 136.762 86.1145 136.837 87.1114C136.92 88.1082 136.173 88.9843 135.176 89.0598L117.922 90.4342C117.877 90.4342 117.824 90.4342 117.778 90.4342V90.4418Z" fill="var(--fill-0, white)"/>
<path id="Vector_12" d="M141.23 88.5689C140.294 88.5689 139.501 87.8515 139.426 86.8999C139.35 85.9031 140.09 85.0271 141.086 84.9515L142.045 84.876C143.049 84.8081 143.917 85.5406 143.992 86.5374C144.068 87.5343 143.328 88.4103 142.332 88.4858L141.373 88.5614C141.328 88.5614 141.275 88.5614 141.23 88.5614V88.5689Z" fill="var(--fill-0, white)"/>
<path id="Vector_13" d="M41.6949 13.8955C41.5213 13.8955 41.3402 13.8729 41.159 13.8125C40.2004 13.5179 39.6645 12.506 39.9589 11.5469L43.114 1.27627C43.4083 0.317181 44.4273 -0.219006 45.3783 0.0755192C46.3369 0.370044 46.8728 1.382 46.5785 2.3411L43.4234 12.6117C43.1819 13.3896 42.4648 13.8955 41.6949 13.8955Z" fill="var(--fill-0, white)"/>
<path id="Vector_14" d="M39.34 21.5758C39.1664 21.5758 38.9852 21.5532 38.8041 21.4928C37.8455 21.1982 37.3096 20.1863 37.6039 19.2272L37.8606 18.404C38.1549 17.4449 39.1664 16.9087 40.125 17.2033C41.0836 17.4978 41.6195 18.5098 41.3251 19.4688L41.0685 20.292C40.8269 21.0699 40.1099 21.5758 39.34 21.5758Z" fill="var(--fill-0, white)"/>
<path id="Vector_15" d="M33.7696 39.708C33.596 39.708 33.4148 39.6853 33.2337 39.6249C32.2751 39.3304 31.7392 38.3184 32.0335 37.3593L35.5283 25.971C35.8226 25.012 36.834 24.4758 37.7926 24.7703C38.7512 25.0648 39.2871 26.0768 38.9928 27.0359L35.4981 38.4242C35.2565 39.202 34.5395 39.708 33.7696 39.708Z" fill="var(--fill-0, white)"/>
</g>
<defs>
<clipPath id="clip0_0_12">
<rect width="144" height="120" fill="white"/>
</clipPath>
</defs>
</svg>
