<svg preserveAspectRatio="none" width="100%" height="100%" overflow="visible" style="display: block;" viewBox="0 0 142 144" fill="none" xmlns="http://www.w3.org/2000/svg">
<g id="Icon3_&#195;&#137;TICA-E-COMPLIANCE_DESKTO_Astrazeneca" clip-path="url(#clip0_0_168)">
<g id="Group">
<g id="Group_2">
<path id="Vector" d="M74.1254 16.0735C73.4528 16.0735 72.8095 15.6765 72.517 15.0221L68.9858 6.94853C68.5984 6.05882 69.0005 5.01471 69.8851 4.625C70.7697 4.23529 71.8079 4.63971 72.1953 5.52941L75.7265 13.6029C76.114 14.4926 75.7119 15.5368 74.8273 15.9265C74.6006 16.0294 74.3594 16.0735 74.1254 16.0735Z" fill="var(--fill-0, white)"/>
<path id="Vector_2" d="M89.4418 45.9853C88.8057 45.9853 88.1843 45.6324 87.8773 45.0221L75.9458 21.4338C75.5072 20.5662 75.8508 19.5 76.7135 19.0588C77.5762 18.6176 78.6363 18.9632 79.0749 19.8309L91.0063 43.4191C91.445 44.2868 91.1014 45.3529 90.2387 45.7941C89.9828 45.9265 89.7123 45.9853 89.4418 45.9853Z" fill="var(--fill-0, white)"/>
</g>
<g id="Group_3">
<path id="Vector_3" d="M52.9018 72.25C52.7337 72.25 52.5582 72.2279 52.3901 72.1691C51.4616 71.8824 50.9425 70.8971 51.2276 69.9632L52.6167 65.4044C52.9018 64.4706 53.8815 63.9485 54.81 64.2353C55.7385 64.5221 56.2575 65.5074 55.9724 66.4412L54.5833 71C54.3494 71.7574 53.6548 72.25 52.9091 72.25H52.9018Z" fill="var(--fill-0, white)"/>
<path id="Vector_4" d="M57.3395 57.6618C57.1714 57.6618 56.9959 57.6397 56.8278 57.5809C55.8993 57.2941 55.3802 56.3088 55.6653 55.375L58.4654 46.1765C58.7506 45.2426 59.7302 44.7206 60.6587 45.0074C61.5872 45.2941 62.1063 46.2794 61.8211 47.2132L59.0211 56.4118C58.7871 57.1691 58.0926 57.6618 57.3469 57.6618H57.3395Z" fill="var(--fill-0, white)"/>
<path id="Vector_5" d="M55.6507 63.2132C55.4826 63.2132 55.3071 63.1912 55.139 63.1324C54.2105 62.8456 53.6914 61.8603 53.9765 60.9265L54.2032 60.1691C54.4883 59.2353 55.468 58.7132 56.3964 59C57.3249 59.2868 57.844 60.2721 57.5589 61.2059L57.3322 61.9632C57.0983 62.7206 56.4037 63.2132 55.658 63.2132H55.6507Z" fill="var(--fill-0, white)"/>
</g>
<path id="Vector_6" d="M96.5626 49.8015C96.5626 49.8015 96.4895 49.8015 96.453 49.8015L60.0519 47.5588C59.3281 47.5147 58.714 47.0294 58.4874 46.3382L52.7556 28.4706C52.4705 27.5735 52.9311 26.6176 53.7864 26.2868C53.7864 26.0221 53.8595 25.7574 53.9911 25.5074C54.4444 24.6471 55.5045 24.3162 56.3599 24.7647L97.3815 46.4779C98.1125 46.8676 98.4781 47.7132 98.2515 48.5147C98.0394 49.2794 97.3449 49.8015 96.5626 49.8015ZM61.4629 44.1103L88.5206 45.7794L56.5719 28.8676L61.4629 44.1103Z" fill="var(--fill-0, white)"/>
<path id="Vector_7" d="M87.6287 71.6397C87.2193 71.6397 86.8026 71.4926 86.4736 71.1985L60.4686 48.2132C59.7375 47.5662 59.6717 46.4559 60.3078 45.7206C60.9511 44.9853 62.0551 44.9191 62.7862 45.5588L88.7911 68.5441C89.5222 69.1912 89.588 70.3015 88.952 71.0368C88.6084 71.4338 88.1185 71.6397 87.636 71.6397H87.6287Z" fill="var(--fill-0, white)"/>
<path id="Vector_8" d="M42.4618 48.4706C41.8696 48.4706 41.3213 48.1691 40.9923 47.6691C40.6487 47.1324 40.6122 46.4559 40.9046 45.8897L51.4689 25.6103C51.5127 25.5294 51.5566 25.4559 51.6078 25.3824L67.7137 3.43382C68.2913 2.64706 69.3879 2.48529 70.1702 3.05882C70.9525 3.63971 71.1133 4.74265 70.5431 5.52941L54.5175 27.375L45.4739 44.7426L58.9991 43.8235C59.9569 43.75 60.8049 44.4926 60.8707 45.4632C60.9365 46.4338 60.2054 47.2794 59.2404 47.3456L42.5934 48.4706C42.5569 48.4706 42.513 48.4706 42.4764 48.4706H42.4618Z" fill="var(--fill-0, white)"/>
<path id="Vector_9" d="M70.1556 78.25C70.0313 78.25 69.9143 78.2353 69.7974 78.2132C69.6658 78.2426 69.5342 78.25 69.4026 78.25L64.9721 78.1544C61.3313 78.0735 57.7709 76.75 54.9562 74.4265L49.0051 69.5221C46.3293 67.3162 44.4504 64.3676 43.5658 61.0074L38.5724 41.9706C37.7975 39.0221 37.8559 35.9265 38.7333 33.0074L42.9955 18.8529C44.4138 14.1397 47.8134 10.3529 52.3316 8.44853L62.8227 4.02941C65.0087 3.11029 67.3189 2.63971 69.6877 2.63235H69.7754C72.21 2.63235 74.5421 3.09559 76.7647 4.02941L87.2558 8.44853C91.774 10.3456 95.1735 14.1397 96.5919 18.8529L100.854 33.0074C101.731 35.9265 101.79 39.0221 101.015 41.9706L96.0216 61.0074C95.137 64.375 93.2581 67.3162 90.5823 69.5221L84.6312 74.4265C81.8165 76.75 78.2561 78.0735 74.6152 78.1544L70.1848 78.25C70.1848 78.25 70.1629 78.25 70.1483 78.25H70.1556ZM69.8485 6.11029H69.695C67.7869 6.11029 65.9299 6.5 64.1606 7.24265L53.6695 11.6618C50.109 13.1618 47.4259 16.1471 46.3074 19.8603L42.0451 34.0147C41.3506 36.3162 41.3067 38.7574 41.9208 41.0809L46.9142 60.1176C47.6087 62.7721 49.0928 65.0956 51.2057 66.8309L57.1568 71.7353C59.3793 73.5662 62.1794 74.6103 65.0526 74.6765L69.483 74.7721C69.5926 74.7721 69.7023 74.7868 69.8047 74.8088C69.907 74.7868 70.0167 74.7721 70.1263 74.7721L74.5568 74.6765C77.43 74.6176 80.2373 73.5735 82.4526 71.7353L88.4036 66.8309C90.5165 65.0882 91.9933 62.7647 92.6952 60.1176L97.6885 41.0809C98.2953 38.7574 98.2514 36.3162 97.5642 34.0147L93.302 19.8603C92.1834 16.1471 89.5003 13.1544 85.9399 11.6618L75.4487 7.24265C73.6721 6.49265 71.7932 6.11029 69.8631 6.11029H69.8485Z" fill="var(--fill-0, white)"/>
</g>
<g id="Group_4">
<path id="Vector_10" d="M136.568 134.147C136.064 134.147 135.559 133.926 135.215 133.507L126.128 122.456C125.514 121.706 125.616 120.596 126.362 119.971C127.108 119.346 128.212 119.456 128.833 120.206L137.921 131.257C138.535 132.007 138.432 133.118 137.687 133.743C137.358 134.015 136.963 134.147 136.568 134.147Z" fill="var(--fill-0, white)"/>
<path id="Vector_11" d="M123.401 118.132C122.897 118.132 122.392 117.912 122.049 117.493L118.4 113.051C117.786 112.301 117.889 111.191 118.634 110.566C119.38 109.941 120.484 110.051 121.105 110.801L124.754 115.243C125.368 115.993 125.265 117.103 124.52 117.728C124.191 118 123.796 118.132 123.401 118.132Z" fill="var(--fill-0, white)"/>
<path id="Vector_12" d="M111.725 103.926C111.221 103.926 110.717 103.706 110.373 103.287L103.011 94.3235C102.397 93.5735 102.499 92.4632 103.245 91.8382C103.991 91.2132 105.094 91.3235 105.716 92.0735L113.078 101.037C113.692 101.787 113.59 102.897 112.844 103.522C112.515 103.794 112.12 103.926 111.725 103.926Z" fill="var(--fill-0, white)"/>
<path id="Vector_13" d="M116.171 109.331C115.666 109.331 115.162 109.11 114.818 108.691L114.211 107.956C113.597 107.206 113.699 106.096 114.445 105.471C115.191 104.846 116.295 104.956 116.916 105.706L117.523 106.441C118.137 107.191 118.035 108.301 117.289 108.926C116.96 109.199 116.565 109.331 116.171 109.331Z" fill="var(--fill-0, white)"/>
</g>
<path id="Vector_14" d="M140.245 136.618C139.58 136.618 138.951 136.235 138.652 135.596L123.174 101.963C123.145 101.897 123.116 101.824 123.094 101.75C122.516 99.9044 119.417 96.6103 117.991 96.3309C117.932 96.3162 117.867 96.3015 117.808 96.2868L103.654 91.8824C103.45 91.8162 103.238 91.7868 103.025 91.7941L89.5588 91.9485C89.1859 91.9338 88.8057 91.8309 88.506 91.6103C87.4167 90.8088 85.3769 85.5 84.931 81.6103C84.4923 77.8382 85.1868 73.0809 85.4427 71.2941C85.4793 71.0588 85.5012 70.8824 85.5158 70.7868C85.567 69.8603 86.3347 69.1177 87.2705 69.1177C88.2063 69.1177 89.0251 69.9044 89.0251 70.8824C89.0251 71.0735 89.0031 71.2427 88.9227 71.7941C88.6815 73.4559 88.0381 77.8824 88.4256 81.1985C88.7692 84.1618 89.9316 87.0809 90.5531 88.4044L102.996 88.2574C103.581 88.2574 104.151 88.3382 104.7 88.5074L118.773 92.8897C121.844 93.5735 125.521 97.9412 126.406 100.581L141.839 134.118C142.249 135 141.861 136.051 140.984 136.463C140.743 136.574 140.494 136.625 140.245 136.625V136.618Z" fill="var(--fill-0, white)"/>
<path id="Vector_15" d="M72.963 120.316C72.5974 120.316 72.2246 120.199 71.9175 119.963L34.5441 91.9485C33.7691 91.3676 33.6083 90.2574 34.1859 89.4779C34.7634 88.6985 35.8601 88.5368 36.6423 89.1176L72.8533 116.257L101.322 90.0882C102.039 89.4338 103.15 89.4779 103.8 90.1985C104.451 90.9191 104.407 92.0368 103.691 92.6912L74.1547 119.846C73.8184 120.154 73.3943 120.309 72.9703 120.309L72.963 120.316Z" fill="var(--fill-0, white)"/>
<path id="Vector_16" d="M52.8287 143.772C52.719 143.772 52.6021 143.765 52.4924 143.743C51.871 143.618 51.3665 143.169 51.1618 142.566L44.3261 121.985L35.6188 93.4265C35.3337 92.4927 35.8528 91.5074 36.7812 91.2206C37.7097 90.9338 38.6894 91.4559 38.9745 92.3897L47.6672 120.904L53.5086 138.493L72.0491 116.743C72.6779 116 73.7891 115.919 74.5202 116.551C75.2586 117.184 75.339 118.301 74.7103 119.037L54.1593 143.154C53.823 143.551 53.3332 143.772 52.8287 143.772Z" fill="var(--fill-0, white)"/>
<path id="Vector_17" d="M91.9421 122.088C91.7301 122.088 91.5181 122.051 91.3134 121.971C90.4068 121.618 89.9536 120.603 90.3045 119.691L101.505 90.3382C101.856 89.4265 102.865 88.9779 103.771 89.3235C104.678 89.6765 105.131 90.6912 104.78 91.6029L93.5798 120.956C93.3093 121.654 92.644 122.088 91.9421 122.088Z" fill="var(--fill-0, white)"/>
<path id="Vector_18" d="M140.041 137.066C139.865 137.066 139.682 137.037 139.507 136.978L91.8252 121.581C90.904 121.279 90.3922 120.287 90.692 119.36C90.9844 118.434 91.9787 117.919 92.8999 118.221L140.582 133.618C141.503 133.919 142.015 134.912 141.715 135.838C141.474 136.588 140.786 137.066 140.048 137.066H140.041Z" fill="var(--fill-0, white)"/>
<path id="Vector_19" d="M53.0334 144C52.4266 144 51.8271 143.676 51.5054 143.11C51.0229 142.265 51.3227 141.184 52.1634 140.706L91.8983 117.963C92.739 117.478 93.8137 117.779 94.2889 118.625C94.7715 119.471 94.4717 120.551 93.631 121.029L53.8961 143.772C53.6256 143.926 53.3259 144 53.0334 144Z" fill="var(--fill-0, white)"/>
<path id="Vector_20" d="M1.8716 137.096C1.16244 137.096 0.489832 136.654 0.226639 135.949C-0.109664 135.037 0.350924 134.022 1.25748 133.676L43.7485 117.743C44.6551 117.404 45.664 117.868 46.0076 118.779C46.3439 119.691 45.8833 120.706 44.9768 121.051L2.48571 136.985C2.28101 137.059 2.0763 137.096 1.8716 137.096Z" fill="var(--fill-0, white)"/>
<g id="Group_5">
<path id="Vector_21" d="M30.8813 100.118C30.5085 100.118 30.1356 100 29.8212 99.7574C29.0463 99.1691 28.9001 98.0588 29.4849 97.2868L33.038 92.5809C33.6229 91.8015 34.7269 91.6544 35.4945 92.2426C36.2695 92.8309 36.4157 93.9412 35.8308 94.7132L32.2777 99.4191C31.9341 99.875 31.4077 100.118 30.8813 100.118Z" fill="var(--fill-0, white)"/>
<path id="Vector_22" d="M20.6972 113.603C20.3244 113.603 19.9515 113.485 19.6371 113.243C18.8622 112.654 18.716 111.544 19.3008 110.772L25.4786 102.596C26.0634 101.816 27.1674 101.669 27.935 102.257C28.71 102.846 28.8562 103.956 28.2713 104.728L22.0936 112.904C21.75 113.36 21.2236 113.603 20.6972 113.603Z" fill="var(--fill-0, white)"/>
<path id="Vector_23" d="M16.0767 119.713C15.7039 119.713 15.331 119.596 15.0166 119.353C14.2417 118.765 14.0955 117.654 14.6803 116.882L15.1775 116.228C15.7623 115.449 16.8663 115.301 17.6339 115.89C18.4016 116.478 18.5551 117.588 17.9702 118.36L17.4731 119.015C17.1295 119.471 16.6031 119.713 16.0767 119.713Z" fill="var(--fill-0, white)"/>
<path id="Vector_24" d="M5.17613 134.147C4.80327 134.147 4.43042 134.029 4.11605 133.787C3.34109 133.199 3.19487 132.088 3.77975 131.316L10.6301 122.25C11.215 121.471 12.3189 121.324 13.0865 121.912C13.8542 122.5 14.0077 123.61 13.4229 124.382L6.57252 133.449C6.2289 133.904 5.70252 134.147 5.17613 134.147Z" fill="var(--fill-0, white)"/>
</g>
<path id="Vector_25" d="M1.75462 137.066C1.5426 137.066 1.33059 137.029 1.11857 136.949C0.212017 136.596 -0.233949 135.574 0.116975 134.669L13.2108 100.632C14.0662 98.0074 17.7655 93.5735 20.8654 92.8824L34.9389 88.5C35.4872 88.3309 36.0721 88.2426 36.6423 88.25L49.0855 88.3971C49.7143 87.0735 50.8767 84.1544 51.2203 81.1912C51.6005 77.875 50.9644 73.4559 50.7232 71.7868C50.6427 71.2279 50.6208 71.0588 50.6208 70.875C50.6208 69.8971 51.4031 69.1103 52.3754 69.1103C53.3478 69.1103 54.0789 69.8456 54.1301 70.7794C54.1374 70.875 54.1666 71.0515 54.2032 71.2868C54.459 73.0735 55.1536 77.8309 54.7149 81.6103C54.2324 85.7647 52.1342 90.875 51.1399 91.6103C50.8328 91.8382 50.4673 91.9632 50.0798 91.9485L36.6058 91.7941C36.4084 91.7941 36.1817 91.8235 35.977 91.8823L21.8231 96.2868C21.7646 96.3088 21.7061 96.3235 21.6403 96.3309C20.1781 96.6176 17.1222 99.8603 16.5373 101.75C16.5227 101.787 16.5154 101.824 16.5007 101.86L3.38496 135.941C3.11445 136.64 2.44916 137.066 1.74731 137.066H1.75462Z" fill="var(--fill-0, white)"/>
<path id="Vector_26" d="M54.8611 105.868C54.2909 105.868 53.7353 105.588 53.399 105.081C52.8653 104.272 53.0773 103.176 53.8888 102.632L85.3623 81.5294C86.1665 80.9926 87.2558 81.2059 87.7968 82.0221C88.3305 82.8309 88.1185 83.9265 87.307 84.4706L55.8335 105.574C55.5338 105.772 55.1974 105.868 54.8611 105.868Z" fill="var(--fill-0, white)"/>
</g>
<defs>
<clipPath id="clip0_0_168">
<rect width="142" height="144" fill="white"/>
</clipPath>
</defs>
</svg>
