<svg preserveAspectRatio="none" width="100%" height="100%" overflow="visible" style="display: block;" viewBox="0 0 125 138" fill="none" xmlns="http://www.w3.org/2000/svg">
<g id="Icon2_&#195;&#137;TICA-E-COMPLIANCE_DESKTO_Astrazeneca" clip-path="url(#clip0_0_83)">
<path id="Vector" d="M97.7679 13.9095H75.0284C74.0342 13.9095 73.2344 13.1068 73.2344 12.1089C73.2344 11.1111 74.0342 10.3084 75.0284 10.3084H97.7679C98.7621 10.3084 99.562 11.1111 99.562 12.1089C99.562 13.1068 98.7621 13.9095 97.7679 13.9095Z" fill="var(--fill-0, white)"/>
<path id="Vector_2" d="M106.118 27.8266H17.5816C16.5874 27.8266 15.7876 27.0238 15.7876 26.026C15.7876 25.0282 16.5874 24.2254 17.5816 24.2254H106.118C107.112 24.2254 107.912 25.0282 107.912 26.026C107.912 27.0238 107.112 27.8266 106.118 27.8266Z" fill="var(--fill-0, white)"/>
<path id="Vector_3" d="M107.717 35.5466H37.2189C36.2247 35.5466 35.4249 34.7438 35.4249 33.746C35.4249 32.7482 36.2247 31.9454 37.2189 31.9454H107.717C108.712 31.9454 109.511 32.7482 109.511 33.746C109.511 34.7438 108.712 35.5466 107.717 35.5466Z" fill="var(--fill-0, white)"/>
<path id="Vector_4" d="M111.657 109.251L71.672 109.236C70.6778 109.236 69.878 108.425 69.878 107.435C69.878 106.445 70.6778 105.634 71.672 105.634L111.657 105.649C112.651 105.649 113.451 106.46 113.451 107.45C113.451 108.44 112.651 109.251 111.657 109.251Z" fill="var(--fill-0, white)"/>
<path id="Vector_5" d="M110.849 117.736H40.4856C39.4914 117.736 38.6915 116.933 38.6915 115.935C38.6915 114.937 39.4914 114.135 40.4856 114.135H110.857C111.851 114.135 112.651 114.937 112.651 115.935C112.651 116.933 111.851 117.736 110.857 117.736H110.849Z" fill="var(--fill-0, white)"/>
<path id="Vector_6" d="M120.941 81.229H51.8553C50.8611 81.229 50.0613 80.4262 50.0613 79.4284C50.0613 78.4306 50.8611 77.6278 51.8553 77.6278H120.941C121.935 77.6278 122.735 78.4306 122.735 79.4284C122.735 80.4262 121.935 81.229 120.941 81.229Z" fill="var(--fill-0, white)"/>
<path id="Vector_7" d="M115.596 72.1885H42.0255C41.0313 72.1885 40.2314 71.3858 40.2314 70.388C40.2314 69.3901 41.0313 68.5874 42.0255 68.5874H115.596C116.59 68.5874 117.39 69.3901 117.39 70.388C117.39 71.3858 116.59 72.1885 115.596 72.1885Z" fill="var(--fill-0, white)"/>
<path id="Vector_8" d="M110.139 47.573H86.1365C85.1423 47.573 84.3425 46.7703 84.3425 45.7724C84.3425 44.7746 85.1423 43.9718 86.1365 43.9718H110.139C111.134 43.9718 111.933 44.7746 111.933 45.7724C111.933 46.7703 111.134 47.573 110.139 47.573Z" fill="var(--fill-0, white)"/>
<path id="Vector_9" d="M110.849 64.7536H86.1365C85.1423 64.7536 84.3425 63.9509 84.3425 62.953C84.3425 61.9552 85.1423 61.1524 86.1365 61.1524H110.849C111.844 61.1524 112.644 61.9552 112.644 62.953C112.644 63.9509 111.844 64.7536 110.849 64.7536Z" fill="var(--fill-0, white)"/>
<path id="Vector_10" d="M110.782 54.2352H1.79404C0.799845 54.2352 0 53.4324 0 52.4346C0 51.4368 0.799845 50.634 1.79404 50.634H110.782C111.776 50.634 112.576 51.4368 112.576 52.4346C112.576 53.4324 111.776 54.2352 110.782 54.2352Z" fill="var(--fill-0, white)"/>
<path id="Vector_11" d="M97.7679 13.9095H92.184C91.1898 13.9095 90.3899 13.1068 90.3899 12.1089C90.3899 11.1111 91.1898 10.3084 92.184 10.3084H97.7679C98.7621 10.3084 99.562 11.1111 99.562 12.1089C99.562 13.1068 98.7621 13.9095 97.7679 13.9095Z" fill="var(--fill-0, white)"/>
<path id="Vector_12" d="M86.9663 13.9095H75.0284C74.0342 13.9095 73.2344 13.1068 73.2344 12.1089C73.2344 11.1111 74.0342 10.3084 75.0284 10.3084H86.9663C87.9605 10.3084 88.7603 11.1111 88.7603 12.1089C88.7603 13.1068 87.9605 13.9095 86.9663 13.9095Z" fill="var(--fill-0, white)"/>
<path id="Vector_13" d="M106.118 27.8266H90.046C89.0518 27.8266 88.252 27.0238 88.252 26.026C88.252 25.0282 89.0518 24.2254 90.046 24.2254H106.118C107.112 24.2254 107.912 25.0282 107.912 26.026C107.912 27.0238 107.112 27.8266 106.118 27.8266Z" fill="var(--fill-0, white)"/>
<path id="Vector_14" d="M84.193 27.8266H77.8914C76.8972 27.8266 76.0974 27.0238 76.0974 26.026C76.0974 25.0282 76.8972 24.2254 77.8914 24.2254H84.193C85.1872 24.2254 85.987 25.0282 85.987 26.026C85.987 27.0238 85.1872 27.8266 84.193 27.8266Z" fill="var(--fill-0, white)"/>
<path id="Vector_15" d="M72.2626 27.8266H64.8323C63.8381 27.8266 63.0382 27.0238 63.0382 26.026C63.0382 25.0282 63.8381 24.2254 64.8323 24.2254H72.2626C73.2568 24.2254 74.0566 25.0282 74.0566 26.026C74.0566 27.0238 73.2568 27.8266 72.2626 27.8266Z" fill="var(--fill-0, white)"/>
<path id="Vector_16" d="M58.9792 27.8266H28.0618C27.0676 27.8266 26.2678 27.0238 26.2678 26.026C26.2678 25.0282 27.0676 24.2254 28.0618 24.2254H58.9792C59.9734 24.2254 60.7732 25.0282 60.7732 26.026C60.7732 27.0238 59.9734 27.8266 58.9792 27.8266Z" fill="var(--fill-0, white)"/>
<path id="Vector_17" d="M21.8275 27.8266H17.5816C16.5874 27.8266 15.7876 27.0238 15.7876 26.026C15.7876 25.0282 16.5874 24.2254 17.5816 24.2254H21.8275C22.8217 24.2254 23.6216 25.0282 23.6216 26.026C23.6216 27.0238 22.8217 27.8266 21.8275 27.8266Z" fill="var(--fill-0, white)"/>
<path id="Vector_18" d="M107.717 35.5466H79.0127C78.0185 35.5466 77.2186 34.7438 77.2186 33.746C77.2186 32.7482 78.0185 31.9454 79.0127 31.9454H107.717C108.712 31.9454 109.511 32.7482 109.511 33.746C109.511 34.7438 108.712 35.5466 107.717 35.5466Z" fill="var(--fill-0, white)"/>
<path id="Vector_19" d="M73.6081 35.5466H57.6262C56.632 35.5466 55.8321 34.7438 55.8321 33.746C55.8321 32.7482 56.632 31.9454 57.6262 31.9454H73.6081C74.6023 31.9454 75.4022 32.7482 75.4022 33.746C75.4022 34.7438 74.6023 35.5466 73.6081 35.5466Z" fill="var(--fill-0, white)"/>
<path id="Vector_20" d="M52.6701 35.5466H48.6186C47.6244 35.5466 46.8245 34.7438 46.8245 33.746C46.8245 32.7482 47.6244 31.9454 48.6186 31.9454H52.6701C53.6643 31.9454 54.4642 32.7482 54.4642 33.746C54.4642 34.7438 53.6643 35.5466 52.6701 35.5466Z" fill="var(--fill-0, white)"/>
<path id="Vector_21" d="M42.9898 35.5466H38.1459C37.1517 35.5466 36.3518 34.7438 36.3518 33.746C36.3518 32.7482 37.1517 31.9454 38.1459 31.9454H42.9898C43.984 31.9454 44.7838 32.7482 44.7838 33.746C44.7838 34.7438 43.984 35.5466 42.9898 35.5466Z" fill="var(--fill-0, white)"/>
<path id="Vector_22" d="M111.657 109.251H109.25C108.256 109.251 107.456 108.44 107.456 107.45C107.456 106.46 108.263 105.649 109.25 105.649H111.657C112.651 105.649 113.451 106.46 113.451 107.45C113.451 108.44 112.644 109.251 111.657 109.251Z" fill="var(--fill-0, white)"/>
<path id="Vector_23" d="M104.152 109.251H102.35C101.356 109.251 100.556 108.44 100.556 107.443C100.556 106.452 101.363 105.642 102.35 105.642H104.152C105.146 105.642 105.946 106.452 105.946 107.45C105.946 108.44 105.138 109.251 104.152 109.251Z" fill="var(--fill-0, white)"/>
<path id="Vector_24" d="M97.5437 109.251H91.8401C90.8459 109.251 90.0461 108.44 90.0461 107.45C90.0461 106.452 90.8459 105.649 91.8401 105.649H97.5437C98.5379 105.649 99.3377 106.46 99.3377 107.45C99.3377 108.448 98.5379 109.251 97.5437 109.251Z" fill="var(--fill-0, white)"/>
<path id="Vector_25" d="M86.443 109.243L71.672 109.228C70.6778 109.228 69.878 108.418 69.878 107.428C69.878 106.437 70.6853 105.627 71.672 105.627L86.443 105.642C87.4372 105.642 88.2371 106.452 88.2371 107.443C88.2371 108.433 87.4297 109.243 86.443 109.243Z" fill="var(--fill-0, white)"/>
<path id="Vector_26" d="M110.849 117.736H106.626C105.632 117.736 104.832 116.933 104.832 115.935C104.832 114.937 105.632 114.135 106.626 114.135H110.849C111.844 114.135 112.644 114.937 112.644 115.935C112.644 116.933 111.844 117.736 110.849 117.736Z" fill="var(--fill-0, white)"/>
<path id="Vector_27" d="M101.304 117.736H88.1324C87.1382 117.736 86.3384 116.933 86.3384 115.935C86.3384 114.937 87.1382 114.135 88.1324 114.135H101.304C102.298 114.135 103.098 114.937 103.098 115.935C103.098 116.933 102.298 117.736 101.304 117.736Z" fill="var(--fill-0, white)"/>
<path id="Vector_28" d="M82.3915 117.736H76.9869C75.9927 117.736 75.1929 116.933 75.1929 115.935C75.1929 114.937 75.9927 114.135 76.9869 114.135H82.3915C83.3857 114.135 84.1855 114.937 84.1855 115.935C84.1855 116.933 83.3857 117.736 82.3915 117.736Z" fill="var(--fill-0, white)"/>
<path id="Vector_29" d="M92.5203 117.736H61.7749C60.7807 117.736 59.9809 116.933 59.9809 115.935C59.9809 114.937 60.7807 114.135 61.7749 114.135H92.5203C93.5145 114.135 94.3144 114.937 94.3144 115.935C94.3144 116.933 93.5145 117.736 92.5203 117.736Z" fill="var(--fill-0, white)"/>
<path id="Vector_30" d="M56.3853 117.736H51.2424C50.2482 117.736 49.4483 116.933 49.4483 115.935C49.4483 114.937 50.2482 114.135 51.2424 114.135H56.3853C57.3795 114.135 58.1793 114.937 58.1793 115.935C58.1793 116.933 57.3795 117.736 56.3853 117.736Z" fill="var(--fill-0, white)"/>
<path id="Vector_31" d="M45.8602 117.736H45.1651C44.1709 117.736 43.371 116.933 43.371 115.935C43.371 114.937 44.1709 114.135 45.1651 114.135H45.8602C46.8544 114.135 47.6543 114.937 47.6543 115.935C47.6543 116.933 46.8544 117.736 45.8602 117.736Z" fill="var(--fill-0, white)"/>
<path id="Vector_32" d="M39.1774 117.736H38.6841C37.6899 117.736 36.89 116.933 36.89 115.935C36.89 114.937 37.6899 114.135 38.6841 114.135H39.1774C40.1716 114.135 40.9715 114.937 40.9715 115.935C40.9715 116.933 40.1716 117.736 39.1774 117.736Z" fill="var(--fill-0, white)"/>
<path id="Vector_33" d="M120.941 81.229H95.8991C94.9049 81.229 94.1051 80.4262 94.1051 79.4284C94.1051 78.4306 94.9049 77.6278 95.8991 77.6278H120.941C121.935 77.6278 122.735 78.4306 122.735 79.4284C122.735 80.4262 121.935 81.229 120.941 81.229Z" fill="var(--fill-0, white)"/>
<path id="Vector_34" d="M90.7562 81.229H86.0319C85.0377 81.229 84.2378 80.4262 84.2378 79.4284C84.2378 78.4306 85.0377 77.6278 86.0319 77.6278H90.7562C91.7504 77.6278 92.5502 78.4306 92.5502 79.4284C92.5502 80.4262 91.7504 81.229 90.7562 81.229Z" fill="var(--fill-0, white)"/>
<path id="Vector_35" d="M80.7021 81.229H72.4868C71.4926 81.229 70.6928 80.4262 70.6928 79.4284C70.6928 78.4306 71.4926 77.6278 72.4868 77.6278H80.7021C81.6963 77.6278 82.4961 78.4306 82.4961 79.4284C82.4961 80.4262 81.6963 81.229 80.7021 81.229Z" fill="var(--fill-0, white)"/>
<path id="Vector_36" d="M67.0075 81.229H66.3497C65.3555 81.229 64.5557 80.4262 64.5557 79.4284C64.5557 78.4306 65.3555 77.6278 66.3497 77.6278H67.0075C68.0017 77.6278 68.8016 78.4306 68.8016 79.4284C68.8016 80.4262 68.0017 81.229 67.0075 81.229Z" fill="var(--fill-0, white)"/>
<path id="Vector_37" d="M60.9601 81.229H51.8553C50.8611 81.229 50.0613 80.4262 50.0613 79.4284C50.0613 78.4306 50.8611 77.6278 51.8553 77.6278H60.9601C61.9543 77.6278 62.7542 78.4306 62.7542 79.4284C62.7542 80.4262 61.9543 81.229 60.9601 81.229Z" fill="var(--fill-0, white)"/>
<path id="Vector_38" d="M115.596 72.1885H109.855C108.861 72.1885 108.061 71.3858 108.061 70.388C108.061 69.3901 108.861 68.5874 109.855 68.5874H115.596C116.59 68.5874 117.39 69.3901 117.39 70.388C117.39 71.3858 116.59 72.1885 115.596 72.1885Z" fill="var(--fill-0, white)"/>
<path id="Vector_39" d="M109.855 72.1885H103.329C102.335 72.1885 101.535 71.3858 101.535 70.388C101.535 69.3901 102.335 68.5874 103.329 68.5874H109.855C110.849 68.5874 111.649 69.3901 111.649 70.388C111.649 71.3858 110.849 72.1885 109.855 72.1885Z" fill="var(--fill-0, white)"/>
<path id="Vector_40" d="M97.7829 72.1885H95.7122C94.718 72.1885 93.9182 71.3858 93.9182 70.388C93.9182 69.3901 94.718 68.5874 95.7122 68.5874H97.7829C98.7771 68.5874 99.5769 69.3901 99.5769 70.388C99.5769 71.3858 98.7771 72.1885 97.7829 72.1885Z" fill="var(--fill-0, white)"/>
<path id="Vector_41" d="M90.6515 72.1885H88.7005C87.7063 72.1885 86.9065 71.3858 86.9065 70.388C86.9065 69.3901 87.7063 68.5874 88.7005 68.5874H90.6515C91.6457 68.5874 92.4456 69.3901 92.4456 70.388C92.4456 71.3858 91.6457 72.1885 90.6515 72.1885Z" fill="var(--fill-0, white)"/>
<path id="Vector_42" d="M83.5127 72.1885H71.9187C70.9245 72.1885 70.1247 71.3858 70.1247 70.388C70.1247 69.3901 70.9245 68.5874 71.9187 68.5874H83.5127C84.5069 68.5874 85.3068 69.3901 85.3068 70.388C85.3068 71.3858 84.5069 72.1885 83.5127 72.1885Z" fill="var(--fill-0, white)"/>
<path id="Vector_43" d="M66.2525 72.1885H47.2731C46.2789 72.1885 45.479 71.3858 45.479 70.388C45.479 69.3901 46.2789 68.5874 47.2731 68.5874H66.2525C67.2467 68.5874 68.0466 69.3901 68.0466 70.388C68.0466 71.3858 67.2467 72.1885 66.2525 72.1885Z" fill="var(--fill-0, white)"/>
<path id="Vector_44" d="M42.3544 72.1885H42.0255C41.0313 72.1885 40.2314 71.3858 40.2314 70.388C40.2314 69.3901 41.0313 68.5874 42.0255 68.5874H42.3544C43.3486 68.5874 44.1484 69.3901 44.1484 70.388C44.1484 71.3858 43.3486 72.1885 42.3544 72.1885Z" fill="var(--fill-0, white)"/>
<path id="Vector_45" d="M110.139 47.573H93.9929C92.9987 47.573 92.1989 46.7703 92.1989 45.7724C92.1989 44.7746 92.9987 43.9718 93.9929 43.9718H110.139C111.134 43.9718 111.933 44.7746 111.933 45.7724C111.933 46.7703 111.134 47.573 110.139 47.573Z" fill="var(--fill-0, white)"/>
<path id="Vector_46" d="M88.6108 47.573H87.938C86.9439 47.573 86.144 46.7703 86.144 45.7724C86.144 44.7746 86.9439 43.9718 87.938 43.9718H88.6108C89.605 43.9718 90.4049 44.7746 90.4049 45.7724C90.4049 46.7703 89.605 47.573 88.6108 47.573Z" fill="var(--fill-0, white)"/>
<path id="Vector_47" d="M110.849 64.7536H96.7887C95.7945 64.7536 94.9946 63.9509 94.9946 62.953C94.9946 61.9552 95.7945 61.1524 96.7887 61.1524H110.849C111.844 61.1524 112.644 61.9552 112.644 62.953C112.644 63.9509 111.844 64.7536 110.849 64.7536Z" fill="var(--fill-0, white)"/>
<path id="Vector_48" d="M90.801 64.7536H83.139C82.1448 64.7536 81.3449 63.9509 81.3449 62.953C81.3449 61.9552 82.1448 61.1524 83.139 61.1524H90.801C91.7952 61.1524 92.5951 61.9552 92.5951 62.953C92.5951 63.9509 91.7952 64.7536 90.801 64.7536Z" fill="var(--fill-0, white)"/>
<path id="Vector_49" d="M110.782 54.2352H104.002C103.008 54.2352 102.208 53.4324 102.208 52.4346C102.208 51.4368 103.008 50.634 104.002 50.634H110.782C111.776 50.634 112.576 51.4368 112.576 52.4346C112.576 53.4324 111.776 54.2352 110.782 54.2352Z" fill="var(--fill-0, white)"/>
<path id="Vector_50" d="M98.1865 54.2352H91.4289C90.4348 54.2352 89.6349 53.4324 89.6349 52.4346C89.6349 51.4368 90.4348 50.634 91.4289 50.634H98.1865C99.1807 50.634 99.9806 51.4368 99.9806 52.4346C99.9806 53.4324 99.1807 54.2352 98.1865 54.2352Z" fill="var(--fill-0, white)"/>
<path id="Vector_51" d="M85.4264 54.2352H68.7567C67.7625 54.2352 66.9627 53.4324 66.9627 52.4346C66.9627 51.4368 67.7625 50.634 68.7567 50.634H85.4264C86.4206 50.634 87.2204 51.4368 87.2204 52.4346C87.2204 53.4324 86.4206 54.2352 85.4264 54.2352Z" fill="var(--fill-0, white)"/>
<path id="Vector_52" d="M63.0905 54.2352H38.1459C37.1517 54.2352 36.3518 53.4324 36.3518 52.4346C36.3518 51.4368 37.1517 50.634 38.1459 50.634H63.0905C64.0847 50.634 64.8846 51.4368 64.8846 52.4346C64.8846 53.4324 64.0847 54.2352 63.0905 54.2352Z" fill="var(--fill-0, white)"/>
<path id="Vector_53" d="M31.7321 54.2352H25.9912C24.997 54.2352 24.1972 53.4324 24.1972 52.4346C24.1972 51.4368 24.997 50.634 25.9912 50.634H31.7321C32.7263 50.634 33.5262 51.4368 33.5262 52.4346C33.5262 53.4324 32.7263 54.2352 31.7321 54.2352Z" fill="var(--fill-0, white)"/>
<path id="Vector_54" d="M13.3731 54.2352H1.79404C0.799845 54.2352 0 53.4324 0 52.4346C0 51.4368 0.799845 50.634 1.79404 50.634H13.3731C14.3673 50.634 15.1671 51.4368 15.1671 52.4346C15.1671 53.4324 14.3673 54.2352 13.3731 54.2352Z" fill="var(--fill-0, white)"/>
<path id="Vector_55" d="M42.8029 3.64619C41.8162 3.64619 41.0163 2.85093 41.0089 1.86061C41.0089 0.862781 41.8012 0.0525171 42.7879 0.0450147C42.7879 0.0450147 45.8528 0.0225073 51.3769 0.00750245C52.3786 -0.0300098 53.171 0.810264 53.1784 1.80059C53.1859 2.79091 52.3786 3.60117 51.3919 3.60868C45.8752 3.62368 42.8178 3.64619 42.8178 3.64619H42.8029Z" fill="var(--fill-0, white)"/>
<path id="Vector_56" d="M56.632 3.63118C55.6453 3.63118 54.8379 2.82842 54.8379 1.8381C54.8379 0.840274 55.6378 0.0375122 56.6245 0.0300098C57.6187 0.0300098 57.7009 0.0300098 57.7832 0.0225073C57.8803 0.0225073 57.97 0.0150049 59.3305 0.0150049C60.3172 0.0150049 61.1246 0.817767 61.1246 1.80809C61.1246 2.80591 60.3247 3.60868 59.338 3.61618C58.0896 3.61618 58.0074 3.61618 57.9177 3.62368C57.828 3.62368 57.7308 3.63118 56.6395 3.63118H56.632Z" fill="var(--fill-0, white)"/>
<path id="Vector_57" d="M64.8323 3.60868C63.8455 3.60868 63.0382 2.80592 63.0382 1.80809C63.0382 0.810264 63.8381 0.00750245 64.8323 0.00750245C69.8556 -2.74598e-10 73.1895 -0.00750245 77.6746 0.00750245C78.6688 0.00750245 79.4687 0.817767 79.4612 1.81559C79.4612 2.80592 78.6539 3.60868 77.6671 3.60868C73.1895 3.59367 69.8556 3.60117 64.8397 3.60868H64.8323Z" fill="var(--fill-0, white)"/>
<path id="Vector_58" d="M67.5308 138C66.5366 138 65.7368 137.197 65.7368 136.199C65.7368 135.202 66.5366 134.399 67.5308 134.399C71.3207 134.399 73.7352 134.391 74.6995 134.376C75.3498 134.369 75.589 132.208 75.7759 130.475C76.0899 127.602 76.4412 124.346 78.7286 122.365C82.1896 119.364 88.7229 121.014 93.4996 122.215C94.8526 122.552 96.0187 122.853 96.7662 122.943C98.4855 123.16 102.051 123.618 105.228 121.555C109.272 118.929 111.156 113.414 109.908 107.84C109.743 107.12 110.042 106.37 110.655 105.957C111.477 105.394 112.531 104.382 112.853 102.746C113.062 101.673 112.913 100.593 112.389 99.535C112.023 98.7922 112.21 97.8919 112.845 97.3593C113.63 96.699 114.094 96.0013 114.273 95.206C114.52 94.1032 114.101 93.1879 113.653 92.2276C113.234 91.3123 112.793 90.367 113.055 89.2941C113.384 87.9212 114.766 86.7883 117.166 85.9255C117.211 85.9105 117.256 85.8955 117.301 85.8805C117.973 85.6929 120.246 84.9277 121.173 82.7445C121.576 81.7992 121.449 80.6888 120.844 79.856L111.148 66.4942C109.205 63.8083 108.323 60.5222 108.667 57.2437C108.831 55.7282 108.936 54.1902 108.981 52.6822C109.16 47.0778 109.631 32.193 99.8834 17.9759C99.39 17.2556 98.8967 16.5279 98.4033 15.7926C94.419 9.87322 90.2927 3.75122 85.5908 3.6687C83.8865 3.63869 81.2179 3.61618 77.6447 3.60868C76.6505 3.60868 75.8507 2.79841 75.8582 1.80059C75.8582 0.810264 76.6655 0.00750245 77.6522 0.00750245C81.2328 0.0150049 83.9239 0.0375122 85.6506 0.067522C92.2213 0.180059 96.8784 7.08981 101.378 13.7745C101.864 14.5022 102.35 15.2225 102.844 15.9352C113.256 31.1276 112.756 46.8678 112.569 52.7947C112.516 54.3927 112.404 56.0208 112.232 57.6263C111.978 60.0196 112.621 62.4203 114.041 64.3785L123.737 77.7403C125.082 79.5935 125.366 82.0543 124.469 84.1624C122.944 87.7486 119.461 89.009 118.31 89.3391C117.428 89.6617 116.912 89.9693 116.65 90.1644C116.732 90.352 116.837 90.577 116.897 90.7196C117.443 91.905 118.272 93.698 117.764 95.9938C117.502 97.1717 116.942 98.2445 116.097 99.1973C116.546 100.585 116.635 102.033 116.359 103.451C115.925 105.664 114.759 107.187 113.615 108.2C114.692 114.855 112.18 121.33 107.164 124.586C102.888 127.362 98.2762 126.769 96.3028 126.521C95.3385 126.401 94.0752 126.079 92.61 125.711C89.0593 124.818 83.1091 123.318 81.0609 125.096C79.8424 126.154 79.5733 128.659 79.3341 130.873C79.0127 133.851 78.5716 137.925 74.7443 137.985C73.7576 138 71.3282 138.007 67.5233 138.007L67.5308 138Z" fill="var(--fill-0, white)"/>
<path id="Vector_59" d="M66.5515 138C64.3837 138 62.358 138 60.0182 138C59.024 138 58.2242 137.19 58.2242 136.199C58.2242 135.209 59.0315 134.399 60.0182 134.399C62.7018 134.399 64.9818 134.399 67.5233 134.399C68.5175 134.399 69.3174 135.202 69.3174 136.199C69.3174 137.197 68.5175 138 67.5233 138C67.1944 138 66.8655 138 66.5441 138H66.5515Z" fill="var(--fill-0, white)"/>
<path id="Vector_60" d="M54.0381 138C53.9484 137.977 53.8437 138 53.7316 138H53.3952V137.977C52.6029 137.895 51.5638 137.565 51.5638 136.199C51.5638 135.697 51.7507 134.571 53.3952 134.414V134.399H53.627C53.627 134.399 53.627 134.399 53.6344 134.399C53.6868 134.399 53.7466 134.384 53.7989 134.399C53.8587 134.399 53.9185 134.399 53.9708 134.399H54.2025V134.414C54.2474 134.414 54.2848 134.421 54.3296 134.429C55.8022 134.616 56.034 135.592 56.0414 136.199C56.0414 136.77 55.8321 137.677 54.5539 137.932C54.4418 137.962 54.3296 137.985 54.21 138C54.1577 138 54.0979 138.007 54.0456 138.007L54.0381 138Z" fill="var(--fill-0, white)"/>
<path id="Vector_61" d="M53.7989 137.985H49.5829C48.5887 137.977 47.7888 137.167 47.7963 136.169C47.7963 135.172 48.5663 134.361 49.5978 134.376H53.8064C54.8006 134.384 55.6004 135.194 55.6004 136.192C55.6004 137.182 54.7931 137.992 53.8064 137.992L53.7989 137.985Z" fill="var(--fill-0, white)"/>
<path id="Vector_62" d="M32.4049 35.5466H31.7546C30.7604 35.5466 29.9605 34.7438 29.9605 33.746C29.9605 32.7482 30.7604 31.9454 31.7546 31.9454H32.4049C33.3991 31.9454 34.199 32.7482 34.199 33.746C34.199 34.7438 33.3991 35.5466 32.4049 35.5466Z" fill="var(--fill-0, white)"/>
<path id="Vector_63" d="M20.3624 54.2352H19.413C18.4188 54.2352 17.619 53.4324 17.619 52.4346C17.619 51.4368 18.4188 50.634 19.413 50.634H20.3624C21.3566 50.634 22.1564 51.4368 22.1564 52.4346C22.1564 53.4324 21.3566 54.2352 20.3624 54.2352Z" fill="var(--fill-0, white)"/>
</g>
<defs>
<clipPath id="clip0_0_83">
<rect width="125" height="138" fill="white"/>
</clipPath>
</defs>
</svg>
