<svg preserveAspectRatio="none" width="100%" height="100%" overflow="visible" style="display: block;" viewBox="0 0 36 36" fill="none" xmlns="http://www.w3.org/2000/svg">
<g id="Camada_1" clip-path="url(#clip0_0_32)">
<path id="Vector" d="M14.0281 31.5768C16.0579 31.6594 18.2852 31.3958 20.2926 31.553C20.8216 31.5943 21.3362 31.7372 21.5624 32.2693C21.7026 32.6012 22.0133 34.0036 22.0595 34.3911C22.128 34.9645 21.7759 35.1567 21.2469 35.2059C18.6962 35.0391 15.8874 35.4171 13.3686 35.2059C12.8189 35.1598 12.5178 35.0693 12.5305 34.4499C12.5385 34.1084 12.9639 32.3821 13.1375 32.1152C13.3319 31.8135 13.6745 31.6213 14.0297 31.5768H14.0281ZM13.8879 34.0131H20.7276L20.4408 32.7394H14.1763C14.1126 32.7569 13.8274 33.9496 13.8895 34.0131H13.8879Z" fill="var(--fill-0, #E6AE3B)"/>
<g id="Group">
<path id="Vector_2" d="M13.4912 13.1631L11.7945 14.1287C10.3829 14.7386 9.67392 14.8117 8.22092 14.2542C6.14339 13.4585 4.50239 11.6543 3.90813 9.51657C3.50504 8.06494 3.48433 4.67887 3.62613 3.13037C3.6564 2.80002 3.71694 2.65708 4.0085 2.48079L9.86989 0L13.4498 1.43098C13.6569 1.41669 13.085 0.119116 14.0855 0.00158821L31.9756 0.00794106L32.3388 0.200115L35.9602 3.88318L35.9984 28.0304C35.992 28.3162 35.9028 28.6513 35.6017 28.745L18.1036 28.7387C17.5412 28.5068 17.8072 27.5904 18.2215 27.5904H34.8019V4.68046H31.8991C31.6968 4.68046 31.3032 4.28817 31.3032 4.08647V1.19275H14.683L14.6941 2.05356C15.0765 2.21556 16.0276 2.45061 16.1136 2.89849C16.0165 6.02409 16.6745 9.25292 14.6877 11.9386L14.6638 19.13C14.5093 19.9892 13.4896 19.6589 13.4896 19.3079V13.1631H13.4912ZM9.81094 1.28804L4.86086 3.41148C4.84493 6.63555 4.21402 9.86121 6.96867 12.1736C7.59002 12.6962 9.05895 13.4792 9.87307 13.4792C11.0297 13.4792 12.7074 12.3436 13.453 11.4987C15.4939 9.18622 14.8136 6.43861 14.9267 3.60524L14.7961 3.33842L9.81094 1.28645V1.28804ZM33.8492 3.49089C33.8842 3.35272 33.7918 3.33207 33.7297 3.25266C33.419 2.84766 32.8662 2.43155 32.4965 2.06468V3.37336L32.616 3.49248H33.8492V3.49089Z" fill="var(--fill-0, #E6AE3B)"/>
<path id="Vector_3" d="M17.8423 5.01557C18.4493 4.89169 21.4413 4.91393 22.12 4.99493C22.598 5.0521 22.9756 5.42533 23.0345 5.90656C23.1365 6.74355 23.1349 9.19575 23.0345 10.0327C22.9469 10.7554 22.3686 10.9745 21.7233 11.0254C20.8534 11.0937 18.9782 11.1254 18.1402 11.0254C17.5316 10.9523 17.1237 10.5664 17.0664 9.9565C16.9867 9.10522 16.9501 6.63396 17.0743 5.83668C17.1301 5.47774 17.4854 5.09022 17.8423 5.01716V5.01557ZM21.8412 6.18767H18.1832V9.83421H21.8412V6.18767Z" fill="var(--fill-0, #E6AE3B)"/>
<path id="Vector_4" d="M17.7642 11.9148C19.128 12.0005 20.7929 11.7337 22.12 11.8941C22.598 11.9513 22.9756 12.3245 23.0345 12.8058C23.1381 13.665 23.1317 16.0648 23.0329 16.9303C22.9819 17.3687 22.6585 17.7896 22.1997 17.8436C21.3123 17.9484 18.8747 17.9436 17.9825 17.842C17.4806 17.7848 17.111 17.4433 17.0648 16.9335C16.9804 16.0155 16.9517 13.6126 17.0759 12.7359C17.1349 12.3182 17.4137 12.1069 17.7642 11.9148ZM21.8412 13.0837H18.1832V16.7334H21.8412V13.0837Z" fill="var(--fill-0, #E6AE3B)"/>
<path id="Vector_5" d="M21.8412 23.6278V19.9813H18.1832V22.2413C18.1832 22.6003 17.2273 22.8321 17.0871 22.2238C17.0106 21.8919 17.0186 20.0004 17.0759 19.6303C17.1524 19.1332 17.589 18.8346 18.0605 18.7885C18.9687 18.7012 21.2342 18.6837 22.1216 18.7901C22.6028 18.8473 22.9788 19.2237 23.0361 19.7018C23.1476 20.6198 23.1253 22.8877 23.0377 23.8295C22.9899 24.3521 22.5916 24.6919 22.0834 24.7809C21.6771 24.8523 20.2592 24.8952 19.9692 24.6602C19.5773 24.3425 19.915 23.6278 20.1301 23.6278H21.8396H21.8412Z" fill="var(--fill-0, #E6AE3B)"/>
<path id="Vector_6" d="M32.2353 14.3288C32.0998 14.4432 31.7669 14.4988 31.5852 14.5147C29.6782 14.6751 27.5497 14.3892 25.6171 14.5115C24.8476 14.4893 24.6835 13.6269 25.3797 13.3251L31.821 13.3219C32.334 13.3203 32.6336 13.9937 32.2337 14.3304L32.2353 14.3288Z" fill="var(--fill-0, #E6AE3B)"/>
<path id="Vector_7" d="M32.2384 21.2296C32.1269 21.3329 31.7509 21.398 31.5852 21.4123C29.6766 21.5727 27.5481 21.2852 25.6155 21.4123C24.8348 21.4043 24.6739 20.3053 25.4562 20.2211C27.4684 20.0035 29.8502 20.3863 31.9039 20.2163C32.3834 20.2545 32.5698 20.9215 32.2369 21.2296H32.2384Z" fill="var(--fill-0, #E6AE3B)"/>
<path id="Vector_8" d="M25.1216 7.43442C24.7918 7.12472 24.9241 6.48149 25.4578 6.42432C27.47 6.20673 29.8518 6.58949 31.9055 6.41955C32.5619 6.50532 32.5746 7.43283 31.9055 7.53765C29.8455 7.39789 27.5704 7.71077 25.5358 7.53765C25.4052 7.52654 25.2204 7.52654 25.1216 7.43442Z" fill="var(--fill-0, #E6AE3B)"/>
<path id="Vector_9" d="M25.316 22.2175L29.7483 22.2064C30.3935 22.308 30.3744 23.2737 29.5874 23.3832C28.8449 23.4865 26.2894 23.4865 25.5454 23.3832C24.8014 23.28 24.7329 22.5812 25.316 22.2175Z" fill="var(--fill-0, #E6AE3B)"/>
<path id="Vector_10" d="M25.1264 16.3093C24.8062 16.0171 24.932 15.3548 25.3845 15.312C26.7132 15.4422 28.4721 15.1102 29.7483 15.3088C30.3919 15.4088 30.376 16.3761 29.5874 16.4856C28.7987 16.5952 26.4217 16.5857 25.6171 16.4952C25.4705 16.4793 25.2331 16.4062 25.1264 16.3093Z" fill="var(--fill-0, #E6AE3B)"/>
<path id="Vector_11" d="M25.316 8.42388L29.7483 8.41276C30.3903 8.51282 30.4174 9.47845 29.5061 9.58804C28.6601 9.68968 26.4742 9.68968 25.6283 9.58804C24.8492 9.49433 24.6883 8.87175 25.3176 8.42388H25.316Z" fill="var(--fill-0, #E6AE3B)"/>
<path id="Vector_12" d="M19.9214 21.5552C19.9644 21.5298 20.4137 20.8897 20.5268 20.7722C20.6144 20.6833 20.7546 20.5038 20.863 20.4705C21.2708 20.3482 21.7408 20.6753 21.6676 21.1089C21.6293 21.3345 20.3181 22.9941 20.1142 23.0561C19.5996 23.2117 18.9416 22.5494 18.6596 22.1603C18.4349 21.849 18.3202 21.5759 18.6245 21.2535C19.1981 20.6436 19.649 21.7124 19.923 21.5552H19.9214Z" fill="var(--fill-0, #E6AE3B)"/>
<path id="Vector_13" d="M12.3537 4.85675C12.8731 4.73605 13.2905 5.09816 13.1121 5.61115L9.86511 9.66903C9.55125 9.95015 9.29793 9.97079 8.96336 9.70874L6.66755 7.32007C6.5624 6.74037 6.83324 6.34491 7.45141 6.54026C7.84015 6.66255 9.16251 8.35876 9.38396 8.32223C9.95433 7.89659 11.8948 4.96316 12.3537 4.85675Z" fill="var(--fill-0, #E6AE3B)"/>
<path id="Vector_14" d="M19.9214 7.76159C20.0791 7.52336 20.632 6.74672 20.863 6.67843C21.2708 6.55614 21.7408 6.88331 21.6676 7.31689C21.6245 7.56783 20.3372 9.16716 20.0951 9.24498C19.5805 9.41016 18.9448 8.76217 18.6596 8.36829C18.2119 7.74889 18.599 7.09137 19.2921 7.3423C19.582 7.44713 19.6203 7.83624 19.923 7.76318L19.9214 7.76159Z" fill="var(--fill-0, #E6AE3B)"/>
<path id="Vector_15" d="M20.863 13.5744C21.3951 13.414 21.881 13.9588 21.5831 14.4527C21.1912 14.7878 20.4344 16.141 19.9724 16.1823C19.3526 16.2395 17.7945 14.6719 18.7584 14.2526C19.3925 13.9763 19.5884 14.7529 19.8816 14.664C20.1285 14.4464 20.5778 13.6602 20.863 13.5744Z" fill="var(--fill-0, #E6AE3B)"/>
</g>
<path id="Vector_16" d="M10.7653 16.4316C11.068 16.3681 11.4233 16.4285 11.6893 16.5841C11.9347 16.727 12.9081 17.7419 12.9766 17.9976C13.1184 18.5344 12.9225 18.8028 12.8125 19.265C13.5534 20.1878 14.2799 21.128 15.1593 21.9253C15.3457 22.0936 16.7015 23.2006 16.8051 23.2149C16.9373 23.234 17.3787 22.9179 17.8996 22.9989C18.5066 23.0942 20.1588 24.7443 19.4705 25.5067L15.2422 29.7742C14.8391 30.1331 14.2337 30.157 13.7828 29.8774C13.6091 29.7694 12.7711 28.9468 12.6596 28.7768C12.1561 28.0081 12.7584 27.5332 12.6851 27.2521C12.6644 27.1727 12.1067 26.466 12.0255 26.485L3.31386 35.6411C2.85502 36 2.27669 36.1271 1.74615 35.8539C1.52947 35.7411 0.3282 34.5341 0.194371 34.3086C-0.501859 33.1301 0.847584 32.2153 1.60117 31.4752C3.62931 29.4836 5.77217 27.5952 7.80828 25.6131C8.38502 25.0525 8.93946 24.468 9.5146 23.9058L8.68136 23.2546C8.11737 23.5929 7.69835 23.6517 7.13436 23.2673C6.94955 23.1418 6.22305 22.4128 6.10834 22.2286C5.92671 21.938 5.88688 21.6362 5.94105 21.2947C6.03664 20.7023 7.28093 19.7351 7.72862 19.2714C8.2958 18.6837 10.0834 16.5762 10.7653 16.4316ZM11.025 17.5561L7.04195 21.5266L7.88476 22.3668L11.8678 18.3963L11.025 17.5561ZM11.8662 20.0639L9.5162 22.4001C11.0951 23.5357 12.4572 24.919 13.6107 26.4818L15.9559 24.0678C15 23.3674 14.0919 22.6018 13.2905 21.7283C12.8683 21.2677 12.4588 20.6071 12.0462 20.1941C11.9936 20.1417 11.9809 20.0321 11.8662 20.0639ZM17.6256 24.1361L13.6442 28.1098L14.4456 28.907L18.427 24.9333L17.6256 24.1361ZM10.3654 24.7459L1.19968 33.5383C1.14711 33.5986 1.16782 33.6352 1.19968 33.6955C1.23473 33.7638 2.21136 34.7358 2.27828 34.7707C2.33882 34.8025 2.37546 34.8231 2.43601 34.7707L11.2289 25.6083C11.3038 25.5162 11.2369 25.4781 11.1891 25.4082C11.0871 25.2605 10.5215 24.7046 10.3654 24.7459Z" fill="var(--fill-0, #E6AE3B)"/>
</g>
<defs>
<clipPath id="clip0_0_32">
<rect width="36" height="36" fill="white"/>
</clipPath>
</defs>
</svg>
