<svg preserveAspectRatio="none" width="100%" height="100%" overflow="visible" style="display: block;" viewBox="0 0 38 30" fill="none" xmlns="http://www.w3.org/2000/svg">
<g id="Camada_1" clip-path="url(#clip0_0_77)">
<path id="Vector" d="M23.6664 0.0389654C34.5265 -0.764061 41.5787 10.8019 36.0986 19.9469L37.95 25.4038C38.112 25.8985 37.7121 26.3593 37.1932 26.2373L31.6356 24.411C23.5026 29.0309 13.1769 24.516 11.5738 15.3609C10.2447 7.76767 15.8506 0.618365 23.6664 0.0389654ZM36.3365 24.5787C35.9504 23.2031 35.3298 21.863 34.935 20.4941C34.8678 20.2586 34.7592 19.9486 34.7799 19.708C34.804 19.4387 35.4349 18.5001 35.6022 18.1393C41.0719 6.2836 26.0866 -4.2862 16.5815 4.33194C7.04527 12.9772 16.2367 28.4685 28.5879 24.3636C29.6015 24.0264 30.491 23.4487 31.4736 23.0506L36.3382 24.5787H36.3365Z" fill="var(--fill-0, #E6AE3B)"/>
<path id="Vector_2" d="M1.6497 28.3906C2.40646 28.1449 3.1477 27.845 3.90619 27.6062C4.34059 27.4689 5.54899 27.0268 5.90927 27.0285C6.26955 27.0302 7.28833 27.6824 7.72791 27.8705C10.424 29.0242 13.5493 29.0208 16.2522 27.8976C16.7194 27.7027 18.1071 26.8235 18.4105 26.7964C18.931 26.7523 19.1672 27.3317 18.9776 27.7773C18.8345 28.1127 16.5298 29.1597 16.066 29.3223C12.6684 30.5218 8.93114 30.083 5.82308 28.3397L0.80675 29.9831C0.177554 30.0474 -0.134458 29.6798 0.0499909 29.0631L1.6497 24.2806C-0.799855 19.9588 -0.548176 14.6391 2.59436 10.7307C4.1389 8.81127 6.75222 7.05274 9.21902 6.57669C9.67583 6.48859 10.3292 6.24972 10.636 6.70883C11.279 7.6728 9.53103 7.77784 8.98285 7.95234C2.81845 9.92263 -0.479223 16.3367 2.14961 22.3492C2.3444 22.7965 3.04255 23.818 3.03048 24.1941L1.6497 28.3906Z" fill="var(--fill-0, #E6AE3B)"/>
<path id="Vector_3" d="M20.8945 13.1314C20.8945 14.5104 19.7585 15.6268 18.3587 15.6268C16.959 15.6268 15.823 14.5104 15.823 13.1314C15.823 11.7523 16.959 10.6359 18.3587 10.6359C19.7585 10.6359 20.8945 11.7523 20.8945 13.1314ZM19.6223 13.1347C19.6223 12.4469 19.0569 11.8912 18.3587 11.8912C17.6606 11.8912 17.0952 12.4486 17.0952 13.1347C17.0952 13.8209 17.6606 14.3782 18.3587 14.3782C19.0569 14.3782 19.6223 13.8209 19.6223 13.1347Z" fill="var(--fill-0, #E6AE3B)"/>
<path id="Vector_4" d="M27.2278 13.1314C27.2278 14.5087 26.0935 15.6251 24.6938 15.6251C23.294 15.6251 22.1598 14.5087 22.1598 13.1314C22.1598 11.754 23.294 10.6376 24.6938 10.6376C26.0935 10.6376 27.2278 11.754 27.2278 13.1314ZM25.9574 13.1347C25.9574 12.4486 25.3919 11.8929 24.6955 11.8929C23.9991 11.8929 23.4337 12.4486 23.4337 13.1347C23.4337 13.8209 23.9991 14.3766 24.6955 14.3766C25.3919 14.3766 25.9574 13.8209 25.9574 13.1347Z" fill="var(--fill-0, #E6AE3B)"/>
<path id="Vector_5" d="M33.5612 13.1314C33.5612 14.5087 32.4269 15.6251 31.0271 15.6251C29.6274 15.6251 28.4931 14.5087 28.4931 13.1314C28.4931 11.754 29.6274 10.6376 31.0271 10.6376C32.4269 10.6376 33.5612 11.754 33.5612 13.1314ZM32.2872 13.133C32.2872 12.4469 31.7218 11.8912 31.0254 11.8912C30.329 11.8912 29.7636 12.4469 29.7636 13.133C29.7636 13.8192 30.329 14.3749 31.0254 14.3749C31.7218 14.3749 32.2872 13.8192 32.2872 13.133Z" fill="var(--fill-0, #E6AE3B)"/>
</g>
<defs>
<clipPath id="clip0_0_77">
<rect width="38" height="30" fill="white"/>
</clipPath>
</defs>
</svg>
