<svg preserveAspectRatio="none" width="100%" height="100%" overflow="visible" style="display: block;" viewBox="0 0 139 131" fill="none" xmlns="http://www.w3.org/2000/svg">
<g id="Icon4_&#195;&#137;TICA-E-COMPLIANCE_DESKTOP_Astrazeneca" clip-path="url(#clip0_0_55)">
<path id="Vector" d="M89.4644 131C89.0199 131 88.5753 130.928 88.1451 130.776C86.9693 130.355 85.0048 129.646 78.975 109.709C76.8384 102.64 74.9313 95.6013 74.0924 92.4365C68.9876 93.9067 54.9205 97.687 49.0126 96.3907C43.8504 95.2609 33.526 86.8168 31.4611 85.0932C28.4354 84.0576 12.2246 78.3147 7.93711 72.7239C3.83601 67.3793 -1.26168 48.5357 0.286983 41.6558C1.65641 35.5653 9.19899 26.1001 12.4254 22.7181C19.6597 15.143 37.9712 4.47557 48.0447 1.96984C60.2691 -1.07178 85.3776 -0.731412 96.1681 3.98311C105.503 8.06034 121.148 20.9583 126.604 29.0765C129.823 33.8707 140.233 50.2303 138.878 59.3407C138.298 63.2514 134.455 67.5169 130.741 71.6448C128.367 74.2809 126.13 76.7649 125.177 78.6913C124.266 80.5307 123.836 84.3762 123.463 87.7655C123.069 91.3358 122.725 94.4208 121.85 96.2458C120.215 99.6568 108.17 101.815 99.9609 102.908C100.742 106.884 102.234 115.741 100.907 119.319C99.7888 122.339 94.3541 131.015 89.4715 131.015L89.4644 131ZM89.407 127.524C91.2496 127.857 96.3115 121.788 97.6809 118.088C98.6417 115.48 97.2937 106.703 96.2111 101.786C96.1036 101.308 96.2111 100.808 96.4836 100.403C96.7632 100.004 97.2005 99.7437 97.6809 99.6785C106.894 98.5415 117.57 96.2603 118.774 94.6671C119.362 93.4287 119.706 90.3508 120.036 87.3672C120.466 83.5072 120.911 79.5241 122.094 77.127C123.263 74.7734 125.65 72.1156 128.188 69.2984C131.4 65.7282 135.042 61.6799 135.473 58.8121C136.405 52.5622 129.744 39.9323 123.757 31.0174C118.681 23.4568 103.524 10.9716 94.8058 7.16234C84.847 2.81715 60.4842 2.44781 48.8692 5.33736C39.4482 7.68376 21.6672 18.0398 14.8989 25.1297C10.9556 29.2576 4.68204 37.7886 3.64243 42.4235C2.3447 48.1881 7.19146 66.0685 10.6544 70.5875C13.8952 74.8168 27.7758 80.1831 32.852 81.8922C33.0528 81.9574 33.2463 82.066 33.4112 82.2036C36.6305 84.9121 45.8436 92.1251 49.7439 92.9797C54.8273 94.0949 69.5611 90.1915 74.8094 88.591C75.2539 88.4535 75.7415 88.5114 76.1501 88.7359C76.5588 88.9676 76.8528 89.3587 76.9747 89.8149C81.9863 109.194 87.4138 125.619 89.4142 127.517L89.407 127.524Z" fill="var(--fill-0, white)"/>
<path id="Vector_2" d="M32.6726 84.3762C32.185 84.3762 31.7047 84.1662 31.3605 83.7679C30.7439 83.0364 30.8299 81.9429 31.5541 81.3201L50.1739 65.2936L71.6617 24.2027L46.9404 5.64149C46.1804 5.06938 46.0155 3.98308 46.5891 3.20819C47.1555 2.44054 48.2309 2.27398 48.9981 2.85334L74.9096 22.298C75.5907 22.8122 75.7986 23.7464 75.4043 24.5068L53.0777 67.2127C52.9773 67.4083 52.8411 67.5821 52.669 67.7269L33.791 83.9706C33.4684 84.2458 33.0741 84.3834 32.6726 84.3834V84.3762Z" fill="var(--fill-0, white)"/>
<path id="Vector_3" d="M98.4407 81.1101C98.1611 81.1101 97.8815 81.0449 97.6234 80.9001C96.7917 80.4438 96.4762 79.3865 96.9351 78.5464L122.99 30.1121C123.442 29.2648 124.488 28.9534 125.32 29.4169C126.159 29.8731 126.467 30.9305 126.008 31.7705L99.9535 80.2048C99.6381 80.7842 99.0501 81.1101 98.4407 81.1101Z" fill="var(--fill-0, white)"/>
<path id="Vector_4" d="M97.8886 103.147C97.6377 103.147 97.3796 103.089 97.1358 102.974L74.673 91.8789C73.8198 91.4588 73.4685 90.416 73.8843 89.5542C74.3002 88.6924 75.3326 88.3376 76.1858 88.7576L98.6486 99.8523C99.5018 100.272 99.8532 101.315 99.4373 102.177C99.1362 102.793 98.5267 103.155 97.8886 103.155V103.147Z" fill="var(--fill-0, white)"/>
<path id="Vector_5" d="M123.384 31.546C123.313 31.546 123.241 31.546 123.176 31.5315L73.6692 25.4121C72.7228 25.2962 72.056 24.4272 72.1707 23.4785C72.2855 22.5225 73.1458 21.849 74.0851 21.9649L123.592 28.0844C124.539 28.2002 125.205 29.0693 125.091 30.018C124.983 30.9015 124.245 31.546 123.384 31.546Z" fill="var(--fill-0, white)"/>
<path id="Vector_6" d="M73.8771 25.4266C73.3609 25.4266 72.859 25.1948 72.5149 24.7531C71.9341 23.9926 72.0704 22.9064 72.816 22.3125L93.9381 5.73564C94.6909 5.14904 95.7664 5.28664 96.3543 6.0398C96.9351 6.80021 96.7988 7.88651 96.0532 8.48035L74.9311 25.0572C74.6156 25.3034 74.2428 25.4193 73.8771 25.4193V25.4266Z" fill="var(--fill-0, white)"/>
<path id="Vector_7" d="M34.7661 37.3686C33.8986 37.3686 33.0311 37.0861 32.3212 36.5575L15.0206 23.5581C14.2606 22.986 14.1029 21.8997 14.6693 21.1248C15.2357 20.3572 16.3112 20.1979 17.0784 20.77L34.379 33.7693C34.5439 33.8924 34.759 33.9286 34.9525 33.8707L71.6617 22.5298C72.5722 22.2473 73.533 22.7688 73.8126 23.6812C74.0922 24.601 73.576 25.5714 72.6726 25.8538L35.9635 37.1948C35.5763 37.3179 35.1748 37.3758 34.7733 37.3758L34.7661 37.3686Z" fill="var(--fill-0, white)"/>
<path id="Vector_8" d="M109.482 39.5846C108.866 39.5846 108.27 39.2515 107.962 38.6649C107.518 37.8176 107.833 36.7675 108.672 36.3112L122.796 28.7289C123.635 28.2799 124.675 28.5985 125.127 29.4458C125.571 30.2932 125.256 31.3432 124.417 31.7995L110.292 39.3818C110.034 39.5194 109.762 39.5846 109.489 39.5846H109.482Z" fill="var(--fill-0, white)"/>
<path id="Vector_9" d="M80.796 53.8006C80.1578 53.8006 79.5484 53.4385 79.2473 52.8229C78.8314 51.9611 79.1828 50.9183 80.036 50.4983L96.2898 42.4742C97.143 42.0541 98.1754 42.409 98.5913 43.2708C99.0071 44.1326 98.6558 45.1754 97.8026 45.5954L81.5488 53.6195C81.305 53.7427 81.0469 53.7934 80.796 53.7934V53.8006Z" fill="var(--fill-0, white)"/>
<path id="Vector_10" d="M69.7904 59.3624C69.1594 59.3624 68.5428 59.0076 68.2489 58.392C67.8259 57.5302 68.1772 56.4874 69.0304 56.0673L73.956 53.6123C74.8092 53.185 75.8416 53.5399 76.2575 54.4017C76.6805 55.2635 76.3292 56.3063 75.476 56.7264L70.5504 59.1814C70.3066 59.3045 70.0485 59.3624 69.7904 59.3624Z" fill="var(--fill-0, white)"/>
<path id="Vector_11" d="M63.0293 62.672C62.3912 62.672 61.7818 62.3172 61.4806 61.6943C61.0648 60.8325 61.4161 59.7897 62.2693 59.3697L63.1727 58.9207C64.0259 58.5006 65.0583 58.8555 65.4742 59.7173C65.89 60.5791 65.5387 61.6219 64.6855 62.042L63.7821 62.491C63.5383 62.6141 63.2802 62.6648 63.0293 62.6648V62.672Z" fill="var(--fill-0, white)"/>
<path id="Vector_12" d="M102.879 42.9014C102.241 42.9014 101.631 42.5466 101.33 41.9238C100.914 41.062 101.266 40.0191 102.119 39.5991L103.022 39.1501C103.875 38.7301 104.908 39.0849 105.324 39.9467C105.74 40.8085 105.388 41.8513 104.535 42.2714L103.632 42.7204C103.388 42.8435 103.13 42.8942 102.879 42.8942V42.9014Z" fill="var(--fill-0, white)"/>
<path id="Vector_13" d="M98.4407 81.1101C98.2902 81.1101 98.1324 81.0883 97.9819 81.0449L52.3392 68.2556C51.4215 68.0021 50.8837 67.0389 51.1419 66.1192C51.3928 65.1922 52.3392 64.6491 53.2569 64.9098L98.8996 77.6991C99.8173 77.9526 100.355 78.9157 100.097 79.8355C99.889 80.6031 99.1935 81.1101 98.4407 81.1101Z" fill="var(--fill-0, white)"/>
<g id="Group">
<path id="Vector_14" d="M30.6865 82.4064C30.6435 82.4064 30.5933 82.4064 30.5503 82.4064C29.6039 82.334 28.8941 81.4939 28.973 80.538L30.3926 62.3244C30.4643 61.3685 31.296 60.6515 32.2424 60.7312C33.1888 60.8036 33.8986 61.6437 33.8197 62.5996L32.4001 80.8131C32.3284 81.7256 31.5756 82.4136 30.6865 82.4136V82.4064Z" fill="var(--fill-0, white)"/>
<path id="Vector_15" d="M32.5507 57.3202C32.5077 57.3202 32.4575 57.3202 32.4145 57.3202C31.468 57.2405 30.7582 56.4077 30.8371 55.4518L31.2601 50.1506C31.339 49.1947 32.1635 48.485 33.1099 48.5574C34.0563 48.6371 34.7661 49.4699 34.6873 50.4258L34.2642 55.727C34.1926 56.6394 33.4397 57.3274 32.5507 57.3274V57.3202Z" fill="var(--fill-0, white)"/>
<path id="Vector_16" d="M33.4971 45.2406C33.4541 45.2406 33.4039 45.2406 33.3609 45.2406C32.4145 45.1682 31.7046 44.3281 31.7835 43.3722L31.8624 42.3583C31.9341 41.4023 32.7658 40.6854 33.7122 40.765C34.6586 40.8375 35.3684 41.6775 35.2895 42.6335L35.2107 43.6474C35.139 44.5598 34.3861 45.2478 33.4971 45.2478V45.2406Z" fill="var(--fill-0, white)"/>
</g>
<g id="Group_2">
<path id="Vector_17" d="M108.679 86.6574C108.407 86.6574 108.134 86.5922 107.876 86.4546L103.646 84.2024C102.807 83.7534 102.484 82.7033 102.922 81.856C103.366 81.0087 104.406 80.6828 105.245 81.1245L109.475 83.3768C110.314 83.8258 110.636 84.8759 110.199 85.7232C109.891 86.317 109.296 86.6502 108.672 86.6502L108.679 86.6574Z" fill="var(--fill-0, white)"/>
<path id="Vector_18" d="M115.311 90.4884C115.024 90.4884 114.738 90.416 114.472 90.2712L113.598 89.7787C112.766 89.308 112.472 88.2506 112.931 87.4106C113.397 86.5705 114.444 86.2736 115.275 86.7371L116.15 87.2295C116.982 87.7003 117.276 88.7576 116.817 89.5977C116.501 90.1698 115.913 90.4884 115.311 90.4884Z" fill="var(--fill-0, white)"/>
</g>
</g>
<defs>
<clipPath id="clip0_0_55">
<rect width="139" height="131" fill="white"/>
</clipPath>
</defs>
</svg>
